<?xml version="1.0" encoding="UTF-8" standalone="no"?>
<!-- Created with Inkscape (http://www.inkscape.org/) -->

<svg
   width="64.0px"
   height="64.0px"
   viewBox="0 0 64.0 64.0"
   version="1.1"
   id="SVGRoot"
   sodipodi:docname="favicon.svg"
   inkscape:version="1.2.2 (b0a8486541, 2022-12-01)"
   inkscape:export-filename="favicon.ico"
   inkscape:export-xdpi="96"
   inkscape:export-ydpi="96"
   xmlns:inkscape="http://www.inkscape.org/namespaces/inkscape"
   xmlns:sodipodi="http://sodipodi.sourceforge.net/DTD/sodipodi-0.dtd"
   xmlns="http://www.w3.org/2000/svg"
   xmlns:svg="http://www.w3.org/2000/svg">
  <sodipodi:namedview
     id="namedview2093"
     pagecolor="#ffffff"
     bordercolor="#000000"
     borderopacity="0.25"
     inkscape:showpageshadow="2"
     inkscape:pageopacity="0.0"
     inkscape:pagecheckerboard="0"
     inkscape:deskcolor="#d1d1d1"
     inkscape:document-units="px"
     showgrid="true"
     inkscape:zoom="4.732211"
     inkscape:cx="20.180841"
     inkscape:cy="40.889977"
     inkscape:window-width="1600"
     inkscape:window-height="836"
     inkscape:window-x="0"
     inkscape:window-y="27"
     inkscape:window-maximized="1"
     inkscape:current-layer="g1772"
     inkscape:lockguides="true">
    <inkscape:grid
       type="xygrid"
       id="grid2216" />
  </sodipodi:namedview>
  <defs
     id="defs2088">
    <clipPath
       clipPathUnits="userSpaceOnUse"
       id="clipPath550">
      <path
         d="M 633.824,617.17 H 866.527 V 548.337 H 633.824 Z"
         id="path548" />
    </clipPath>
    <clipPath
       clipPathUnits="userSpaceOnUse"
       id="clipPath554">
      <path
         d="M 634.401,616.593 H 865.95 V 583.688 H 634.401 Z"
         id="path552" />
    </clipPath>
    <clipPath
       clipPathUnits="userSpaceOnUse"
       id="clipPath558">
      <path
         d="M 633.824,617.17 H 866.527 V 583.111 H 633.824 Z"
         id="path556" />
    </clipPath>
    <clipPath
       clipPathUnits="userSpaceOnUse"
       id="clipPath562">
      <path
         d="M 688.103,581.82 H 811.839 V 548.915 H 688.103 Z"
         id="path560" />
    </clipPath>
    <clipPath
       clipPathUnits="userSpaceOnUse"
       id="clipPath566">
      <path
         d="m 687.525,582.397 h 124.892 v -34.06 H 687.525 Z"
         id="path564" />
    </clipPath>
  </defs>
  <g
     inkscape:label="Layer 1"
     inkscape:groupmode="layer"
     id="layer1">
    <g
       id="g1772"
       style="fill:#1a1a1a"
       transform="matrix(0.18027197,0,0,-0.18027197,-103.56193,154.04981)">
      <g
         id="g256"
         transform="translate(641.99739,720.5809)"
         style="fill:#1a1a1a">
        <path
           d="m 0,0 c 0.65,0.477 2.605,1.608 4.345,2.51 4.122,2.135 26.209,17.026 32.751,22.078 14.058,10.862 36.215,31.191 49.011,44.975 4.563,4.913 8.657,9.318 9.105,9.788 3.247,3.415 14.89,16.823 16.17,18.621 l 1.58,2.219 -4.88,4.226 c -9.08,7.861 -11.554,14.502 -7.291,19.568 1.72,2.044 2.605,2.431 5.568,2.431 2.682,0 3.978,-0.461 5.459,-1.942 l 1.938,-1.938 1.938,1.938 c 3.288,3.288 10.365,2.28 12.195,-1.741 1.408,-3.093 1.017,-5.924 -1.415,-10.158 -2.181,-3.806 -7.608,-9.479 -10.743,-11.236 -1.424,-0.794 -1.383,-0.984 0.814,-3.876 4.819,-6.341 23.992,-27.246 25.428,-27.723 0.725,-0.239 1.021,2.51 1.185,10.993 l 0.222,11.319 6.46,0.226 6.456,0.231 2.234,-2.793 2.23,-2.795 0.395,-18.724 0.395,-18.722 9.084,-8.232 c 15.569,-14.112 33.85,-27.719 50.71,-37.75 8.83,-5.25 6.6,-4.855 -5.286,0.942 -25.329,12.351 -53.558,33.989 -85.956,65.888 -8.606,8.476 -15.938,15.409 -16.292,15.409 -0.354,0 -7.373,-6.579 -15.598,-14.614 C 79.412,52.739 72.673,46.662 58.898,35.648 40.939,21.288 25.608,11.232 10.665,4.007 2.679,0.147 -2.383,-1.753 0,0"
           style="fill:#1a1a1a;fill-opacity:1;fill-rule:nonzero;stroke:none"
           id="path258" />
      </g>
      <g
         id="g2582">
        <g
           id="g260"
           transform="translate(774.68174,505.76381)"
           style="fill:#1a1a1a">
          <path
             d="m 0,0 -3.243,0.326 2.432,0.704 c 1.337,0.386 3.769,1.073 5.405,1.523 16.654,4.602 32.553,13.115 43.052,23.053 5.711,5.407 7.192,7.493 12.258,17.263 4.942,9.537 6.136,11.496 9.753,15.988 3.563,4.428 7.819,7.597 15.132,11.265 3.237,1.624 6.885,3.597 8.107,4.385 6.009,3.879 11.664,9.905 17.091,18.209 4.782,7.316 6.885,8.971 8.869,6.986 2.463,-2.463 -0.253,-10.952 -7.656,-23.911 -1.92,-3.364 -3.361,-6.249 -3.2,-6.41 1.035,-1.035 10.119,7.904 16.098,15.842 8.359,11.093 13.983,23.678 13.983,31.283 0,4.332 3.341,6.542 5.849,3.871 1.416,-1.507 1.461,-2.914 0.327,-10.551 C 141.247,89.566 131.813,68.585 117.725,50.832 112.211,43.88 99.66,31.669 92.685,26.465 86.517,21.865 80.027,17.778 74.31,14.902 72.674,14.077 70.462,12.954 69.393,12.405 65.801,10.556 52.701,5.97 46.32,4.329 31.365,0.478 12.593,-1.275 0,0"
             style="fill:#1a1a1a;fill-opacity:1;fill-rule:nonzero;stroke:none"
             id="path262" />
        </g>
        <g
           id="g264"
           transform="translate(709.0408,507.85756)"
           style="fill:#1a1a1a">
          <path
             d="m 0,0 c -26.563,2.317 -51.698,12.039 -70.998,27.465 -11.621,9.286 -23.195,22.385 -31.023,35.109 -9.333,15.163 -16.25,35.574 -16.601,48.975 -0.098,3.765 0.022,4.434 0.9,5.081 0.557,0.408 1.557,0.744 2.218,0.744 2.109,0 3.099,-1.593 3.468,-5.58 1.126,-12.112 10.393,-28.183 23.492,-40.738 6.211,-5.956 6.863,-5.888 3.278,0.339 -9.115,15.837 -11.643,25.625 -6.616,25.625 1.715,0 2.778,-1.196 7.505,-8.421 3.536,-5.407 9.253,-11.65 13.909,-15.186 1.87,-1.422 5.869,-3.766 8.883,-5.206 12.316,-5.891 16.62,-10.541 25.253,-27.292 2.22,-4.305 5.197,-9.29 6.616,-11.077 C -23.125,21.542 -9.275,12.176 4.488,6.709 8.9,4.956 19.215,1.511 20.063,1.509 20.367,1.506 21.553,1.223 22.703,0.878 L 24.79,0.251 21.659,-0.109 C 17.438,-0.587 6.089,-0.532 0,0"
             style="fill:#1a1a1a;fill-opacity:1;fill-rule:nonzero;stroke:none"
             id="path266" />
        </g>
      </g>
      <g
         id="g268"
         transform="translate(725.99839,694.6358)"
         style="fill:#1a1a1a">
        <path
           d="M 0,0 C -0.007,0.022 -0.021,0.009 -0.032,-0.032 -0.045,-0.081 -0.041,-0.093 -0.019,-0.071 -0.001,-0.053 0.007,-0.022 0,0 Z m 42.621,-64.924 c 0.145,0.15 0.588,0.442 0.797,0.524 0.117,0.046 0.259,0.073 0.43,0.081 0.35,0.016 0.534,-0.054 0.793,-0.303 l 0.192,-0.185 0.016,0.27 c 0.009,0.148 0.03,0.506 0.048,0.794 0.17,2.799 1.165,7.627 2.189,10.623 1.079,3.16 3.141,7.223 5.106,10.066 l 0.288,0.417 -0.325,0.332 c -0.34,0.349 -0.575,0.619 -0.631,0.726 -0.036,0.07 -0.013,0.115 0.617,1.18 1.127,1.902 2.279,3.585 3.211,4.69 0.282,0.334 0.302,0.367 0.288,0.464 -0.008,0.058 -0.023,0.375 -0.033,0.704 -0.022,0.677 0.008,1.064 0.181,2.398 0.058,0.445 0.123,0.96 0.145,1.145 l 0.039,0.336 -0.211,0.064 c -0.694,0.211 -1.269,0.752 -1.572,1.478 -0.166,0.4 -0.196,0.578 -0.195,1.157 10e-4,0.605 0.054,0.913 0.312,1.843 0.419,1.509 0.46,1.738 0.689,3.864 0.17,1.583 0.297,2.342 0.588,3.508 0.355,1.421 1.053,3.541 1.731,5.253 0.138,0.349 0.239,0.627 0.225,0.618 -0.912,-0.563 -2.01,-1.433 -2.232,-1.768 -0.232,-0.349 -0.533,-0.523 -0.905,-0.522 -0.437,0.002 -0.748,0.142 -1.106,0.498 l -0.246,0.244 -0.745,-0.427 c -0.834,-0.478 -1.068,-0.623 -1.97,-1.224 -1.704,-1.136 -3.444,-2.396 -4.923,-3.563 -1.21,-0.956 -2.267,-1.834 -5.391,-4.482 l -1.142,-0.967 -0.002,-0.243 c -0.012,-0.826 -0.467,-1.907 -1.247,-2.962 l -0.188,-0.254 -0.021,-0.255 c -0.126,-1.551 -0.568,-2.385 -1.379,-2.604 -0.108,-0.029 -0.131,-0.053 -0.223,-0.235 -0.07,-0.136 -0.183,-0.283 -0.348,-0.449 l -0.244,-0.247 -0.036,-0.263 c -0.056,-0.4 -0.193,-0.777 -0.394,-1.08 -0.195,-0.295 -0.333,-0.403 -0.59,-0.46 -0.436,-0.098 -0.819,0.147 -1.18,0.755 l -0.121,0.204 -0.179,-0.116 c -0.336,-0.217 -0.877,-0.35 -1.3,-0.321 -0.712,0.051 -1.056,0.479 -0.839,1.044 0.012,0.033 -0.025,0.058 -0.143,0.095 -0.375,0.118 -0.613,0.486 -0.523,0.808 0.018,0.066 0.012,0.087 -0.03,0.101 -0.173,0.058 -0.431,0.196 -0.531,0.284 -0.205,0.179 -0.277,0.458 -0.185,0.714 l 0.038,0.103 -0.152,0.076 c -0.084,0.041 -0.215,0.138 -0.292,0.215 -0.254,0.253 -0.366,0.57 -0.368,1.039 -0.001,0.152 -0.003,0.277 -0.007,0.277 -0.002,0 -0.045,-0.073 -0.095,-0.161 -0.29,-0.514 -0.984,-1.062 -1.52,-1.202 -0.616,-0.16 -0.992,0.078 -1.026,0.648 -0.017,0.294 0.059,0.568 0.368,1.328 0.124,0.304 0.255,0.672 0.29,0.817 0.064,0.262 0.068,0.368 0.047,1.192 -0.006,0.179 0.008,0.238 0.087,0.405 0.05,0.107 0.177,0.309 0.282,0.449 0.491,0.66 0.614,0.948 0.674,1.579 l 0.021,0.215 -0.221,-0.07 c -0.577,-0.183 -1.238,-0.233 -1.644,-0.124 -0.494,0.132 -0.899,0.434 -1.103,0.82 -0.056,0.106 -0.152,0.229 -0.221,0.285 -0.212,0.169 -0.801,0.833 -0.829,0.933 -0.014,0.052 -0.254,0.438 -0.532,0.858 -0.279,0.42 -0.709,1.074 -0.956,1.453 -0.885,1.357 -1.413,2.09 -2.238,3.104 -1.694,2.084 -3.093,3.424 -5.254,5.033 -0.648,0.482 -2.67,1.916 -2.702,1.916 -0.026,0 0.016,-0.828 0.068,-1.363 0.13,-1.335 0.44,-2.853 0.88,-4.315 0.415,-1.376 0.879,-2.651 1.945,-5.339 1.281,-3.23 1.679,-4.355 2.266,-6.408 0.66,-2.305 0.951,-3.664 1.466,-6.833 0.313,-1.924 0.353,-2.215 0.514,-3.719 0.016,-0.144 0.025,-0.159 0.163,-0.248 0.253,-0.164 0.519,-0.572 0.672,-1.028 0.167,-0.5 0.236,-1.319 0.165,-1.957 -0.022,-0.198 -0.042,-0.455 -0.044,-0.571 -0.003,-0.2 -0.013,-0.227 -0.171,-0.495 -0.537,-0.91 -1.335,-1.662 -2.461,-2.32 -0.333,-0.194 -1.03,-0.533 -1.363,-0.661 -0.121,-0.047 -0.226,-0.101 -0.234,-0.119 -0.007,-0.019 0.056,-0.262 0.14,-0.541 1.456,-4.83 4.457,-10.468 8.806,-16.539 0.271,-0.379 0.516,-0.719 0.544,-0.755 l 0.05,-0.066 0.171,0.144 c 0.568,0.48 1.16,0.519 1.78,0.117 0.557,-0.361 1.092,-0.913 1.543,-1.592 l 0.193,-0.29 0.161,0.322 c 0.664,1.323 1.854,2.504 2.995,2.97 0.482,0.196 0.761,0.254 1.242,0.255 0.966,0.003 1.64,-0.291 3.057,-1.334 1.202,-0.886 1.587,-1.097 3.671,-2.019 0.585,-0.259 1.219,-0.532 1.408,-0.607 0.354,-0.141 0.938,-0.332 1.021,-0.335 0.025,-0.001 0.093,0.046 0.15,0.106 z M 11.708,-77.345 c -1.055,0.086 -1.731,0.356 -2.346,0.937 -0.938,0.888 -1.318,2.204 -0.994,3.45 0.229,0.881 0.824,1.644 1.587,2.035 0.14,0.072 0.842,0.404 1.559,0.737 1.43,0.665 2.823,1.356 3.521,1.746 1.26,0.704 2.188,1.38 2.705,1.969 0.262,0.299 0.312,0.391 0.379,0.686 0.06,0.27 0.135,0.421 0.257,0.524 0.098,0.082 0.374,0.18 0.609,0.215 0.077,0.012 0.14,0.031 0.14,0.044 0,0.012 -0.16,0.236 -0.355,0.498 -3.327,4.46 -7.655,12.787 -9.373,18.033 l -0.146,0.446 -0.27,-0.019 c -0.148,-0.011 -0.676,-0.034 -1.173,-0.051 -1.935,-0.067 -4.286,0.087 -6.243,0.409 -0.754,0.124 -1.958,0.367 -2.224,0.449 -0.04,0.013 -0.125,-0.135 -0.436,-0.757 -2.296,-4.603 -3.822,-11.28 -4.473,-19.574 -0.033,-0.419 -0.059,-0.817 -0.059,-0.884 v -0.123 l 0.265,-0.003 c 0.454,-0.005 0.828,-0.159 1.071,-0.442 0.208,-0.243 0.375,-0.692 0.467,-1.263 0.05,-0.31 0.049,-1.294 -0.001,-1.663 -0.178,-1.298 -0.628,-2.405 -1.217,-2.985 -0.637,-0.628 -1.506,-0.824 -3.042,-0.686 -0.95,0.086 -1.954,0.11 -3.133,0.076 -2.038,-0.06 -3.324,-0.071 -3.939,-0.034 -1.707,0.103 -2.676,0.304 -4.136,0.857 -1.571,0.596 -2.988,1.332 -4.429,2.3 -1.584,1.064 -2.21,1.661 -2.616,2.495 -0.405,0.829 -0.426,1.84 -0.057,2.762 0.178,0.446 0.39,0.758 0.78,1.148 0.68,0.679 1.407,0.994 2.307,0.997 0.45,0.002 0.465,-0.001 1.768,-0.354 3.324,-0.899 4.809,-1.218 6.218,-1.335 0.733,-0.061 1.71,0.009 1.973,0.142 0.052,0.026 0.171,0.107 0.265,0.18 0.376,0.291 0.542,0.295 1.076,0.026 l 0.197,-0.1 0.037,0.604 c 0.255,4.267 1.451,10.495 3.048,15.873 0.533,1.792 1.248,3.81 1.661,4.683 0.048,0.101 0.078,0.193 0.065,0.204 -0.054,0.048 -1.12,0.373 -1.7,0.518 -1.075,0.268 -1.675,0.351 -2.711,0.374 -0.775,0.018 -0.825,0.023 -0.835,0.075 -0.006,0.031 0.003,0.085 0.021,0.12 0.018,0.035 0.06,0.239 0.096,0.453 0.216,1.325 0.675,2.773 1.533,4.84 0.869,2.092 1.557,3.409 2.386,4.566 l 0.259,0.364 -0.14,0.419 c -0.282,0.841 -0.507,1.905 -0.712,3.371 -0.301,2.161 -0.487,3.824 -0.607,5.424 -0.061,0.816 -0.051,3.416 0.015,4.196 0.243,2.832 0.753,5.261 1.681,7.992 l 0.104,0.307 -0.245,-0.2 c -0.972,-0.791 -2.46,-1.419 -4.097,-1.729 -1.523,-0.288 -2.95,-0.292 -5.138,-0.017 -1.859,0.234 -4.041,0.685 -6.29,1.3 l -0.597,0.163 -0.21,-0.148 c -0.543,-0.381 -1.07,-0.346 -1.645,0.11 -0.296,0.234 -0.568,0.658 -0.751,1.168 -0.093,0.26 -0.222,0.828 -0.25,1.102 -0.024,0.243 -0.049,0.26 -0.372,0.26 -0.2,0 -0.216,-0.006 -0.435,-0.153 -0.688,-0.462 -1.557,-0.69 -3.124,-0.82 -0.488,-0.041 -0.573,-0.056 -0.764,-0.138 -0.286,-0.121 -0.728,-0.251 -1.14,-0.334 -0.451,-0.091 -1.504,-0.099 -1.918,-0.014 -0.57,0.116 -1.132,0.355 -1.518,0.647 -0.366,0.277 -0.798,0.767 -0.925,1.05 -0.052,0.116 -0.078,0.136 -0.293,0.225 -0.83,0.343 -1.504,1.062 -1.768,1.885 -0.051,0.162 -0.07,0.185 -0.242,0.295 -0.385,0.244 -0.738,0.717 -0.903,1.208 -0.095,0.283 -0.184,0.78 -0.184,1.022 0,0.241 0.091,0.718 0.182,0.947 0.163,0.413 0.525,0.809 0.916,1.003 0.217,0.107 0.249,0.114 0.503,0.114 0.222,0 0.294,-0.012 0.395,-0.066 0.176,-0.094 0.385,-0.34 0.466,-0.549 0.067,-0.172 0.073,-0.179 0.177,-0.179 0.412,0 0.738,-0.291 0.881,-0.786 0.027,-0.095 0.061,-0.173 0.074,-0.173 0.013,0 0.137,0.053 0.275,0.118 0.917,0.43 2.307,0.775 4.357,1.081 1.422,0.212 2.118,0.42 2.591,0.776 0.165,0.124 0.331,0.31 0.407,0.457 0.039,0.075 0.029,0.106 -0.164,0.51 -0.598,1.254 -0.768,1.826 -0.764,2.572 0.002,0.385 0.011,0.462 0.081,0.674 0.139,0.421 0.368,0.706 0.691,0.857 0.428,0.2 0.904,0.196 1.119,-0.01 0.184,-0.175 0.23,-0.351 0.308,-1.177 0.057,-0.595 0.212,-1.097 0.477,-1.537 0.079,-0.132 0.316,-0.472 0.527,-0.756 0.832,-1.122 1.088,-1.626 1.249,-2.459 0.036,-0.188 0.069,-0.347 0.074,-0.352 0.003,-0.007 0.053,0.024 0.108,0.066 0.339,0.259 0.768,0.316 1.131,0.152 0.321,-0.145 0.705,-0.496 0.923,-0.844 l 0.082,-0.13 0.195,0.023 c 0.305,0.037 0.774,0.022 1.003,-0.033 0.116,-0.028 0.433,-0.146 0.705,-0.263 0.931,-0.401 1.065,-0.432 2.116,-0.489 0.834,-0.045 1.213,-0.103 1.606,-0.244 0.226,-0.081 0.665,-0.295 0.812,-0.394 l 0.084,-0.058 0.2,0.073 c 0.135,0.049 0.29,0.079 0.471,0.088 0.257,0.014 0.405,-0.01 0.749,-0.123 0.048,-0.015 0.072,0.003 0.119,0.09 0.095,0.178 0.413,0.446 0.684,0.578 0.303,0.147 0.578,0.234 1.336,0.422 0.991,0.246 1.624,0.441 2.297,0.708 0.518,0.204 0.914,0.392 2.231,1.055 1.732,0.872 2.564,1.24 3.567,1.578 1.155,0.389 2.386,0.617 3.336,0.617 h 0.325 l 0.21,0.192 c 0.37,0.338 0.759,0.477 1.024,0.366 0.168,-0.07 0.199,-0.063 0.199,0.044 V 1.439 L -0.196,1.422 C -0.699,1.343 -1.349,1.305 -2.226,1.304 -3.39,1.303 -4.197,1.377 -5.133,1.573 -6.835,1.93 -8.35,2.712 -9.922,4.046 c -0.474,0.403 -0.398,0.366 -0.605,0.291 -0.133,-0.049 -0.249,-0.066 -0.449,-0.067 -0.333,-0.002 -0.529,0.073 -0.701,0.269 -0.218,0.248 -0.233,0.524 -0.05,0.896 0.127,0.257 0.291,0.463 0.91,1.147 0.265,0.292 0.534,0.598 0.599,0.681 0.295,0.377 0.762,1.076 1.038,1.555 L -9.095,8.966 -9.271,8.83 c -0.719,-0.552 -1.662,-0.927 -2.807,-1.116 -0.644,-0.106 -1.1,-0.142 -1.355,-0.106 -0.493,0.069 -0.934,0.425 -1.198,0.966 -0.075,0.154 -0.136,0.296 -0.136,0.316 0,0.025 -0.086,0.036 -0.301,0.036 -0.165,0 -0.431,0.014 -0.591,0.031 -0.875,0.094 -1.386,0.363 -1.63,0.859 -0.088,0.178 -0.1,0.231 -0.1,0.443 0,0.286 0.054,0.417 0.249,0.607 l 0.131,0.127 -0.139,0.212 c -0.447,0.678 -0.758,1.604 -0.903,2.68 -0.064,0.478 -0.073,1.65 -0.015,2.098 0.04,0.317 0.115,0.777 0.139,0.856 0.011,0.035 -0.029,0.06 -0.158,0.1 -0.557,0.173 -0.979,0.695 -1.179,1.456 -0.093,0.355 -0.114,1.004 -0.045,1.347 0.095,0.47 0.304,0.906 0.572,1.196 0.283,0.306 0.606,0.423 1.003,0.364 0.146,-0.022 0.308,-0.086 0.645,-0.254 0.558,-0.278 0.665,-0.316 0.895,-0.315 0.33,0 0.636,0.194 0.976,0.617 0.493,0.612 0.767,1.34 1.023,2.709 0.161,0.863 0.323,1.678 0.357,1.796 0.025,0.09 0.016,0.11 -0.14,0.294 -0.638,0.752 -1.056,1.764 -1.253,3.034 -0.068,0.437 -0.093,1.589 -0.047,2.132 0.182,2.129 0.823,3.869 1.807,4.898 0.272,0.285 0.668,0.607 0.854,0.696 0.054,0.026 0.098,0.055 0.098,0.066 0,0.011 -0.054,0.036 -0.12,0.056 -0.938,0.281 -1.813,1.192 -2.116,2.206 -0.069,0.232 -0.081,0.327 -0.084,0.674 -0.003,0.475 0.034,0.641 0.242,1.094 0.16,0.348 0.191,0.388 0.273,0.362 0.085,-0.027 0.099,-0.084 0.066,-0.261 -0.116,-0.61 0.374,-1.237 1.342,-1.719 0.725,-0.36 1.525,-0.552 2.307,-0.554 l 0.307,-10e-4 0.412,0.288 c 1.525,1.063 3.249,2.005 4.839,2.644 2.258,0.908 4.067,1.292 7.11,1.509 0.656,0.047 2.661,0.047 3.207,-0.001 2,-0.173 3.446,-0.51 4.869,-1.135 0.453,-0.198 1.051,-0.517 1.071,-0.569 0.008,-0.021 0.052,-0.039 0.098,-0.039 0.071,0 0.104,0.032 0.221,0.221 0.267,0.428 0.718,0.779 1.212,0.942 0.198,0.065 0.285,0.076 0.62,0.077 0.343,0 0.418,-0.009 0.629,-0.079 0.541,-0.181 0.983,-0.556 1.226,-1.042 0.076,-0.151 0.139,-0.297 0.14,-0.324 0.007,-0.133 0.058,0.165 0.089,0.521 0.073,0.845 -0.101,1.735 -0.473,2.411 -0.467,0.852 -1.288,1.549 -2.502,2.127 -0.426,0.202 -0.699,0.303 -1.117,0.414 -0.267,0.071 -0.354,0.08 -0.794,0.079 -0.459,0 -0.513,-0.006 -0.741,-0.082 C 9.164,46.577 8.694,46.049 8.513,45.331 8.46,45.125 8.452,45.023 8.464,44.743 c 0.01,-0.22 0.004,-0.345 -0.016,-0.358 -0.051,-0.031 -0.227,0.198 -0.349,0.456 -0.135,0.285 -0.248,0.62 -0.333,0.988 -0.081,0.349 -0.112,1.144 -0.059,1.478 0.129,0.804 0.524,1.463 1.164,1.943 0.127,0.095 0.242,0.182 0.257,0.194 C 9.155,49.467 9.103,49.463 8.622,49.408 7.684,49.301 6.649,49.002 5.891,48.622 5.251,48.3 4.602,47.776 4.232,47.279 4.058,47.046 3.79,46.553 3.722,46.342 3.652,46.122 3.619,46.293 3.62,46.878 c 10e-4,1.045 0.233,1.911 0.742,2.769 0.983,1.655 3.02,2.859 5.519,3.261 0.471,0.076 1.726,0.076 2.175,0 1.221,-0.206 2.302,-0.694 3.279,-1.481 0.311,-0.251 0.852,-0.792 1.033,-1.035 0.058,-0.077 0.115,-0.141 0.127,-0.142 0.035,0 0.25,0.301 0.335,0.471 0.132,0.265 0.176,0.516 0.16,0.922 -0.013,0.307 -0.03,0.403 -0.117,0.661 -0.218,0.643 -0.645,1.263 -1.375,1.999 -0.258,0.261 -0.458,0.48 -0.444,0.489 0.014,0.009 0.038,0.009 0.053,-0.001 0.015,-0.009 0.18,-0.043 0.367,-0.075 0.671,-0.116 1.454,-0.371 2.038,-0.663 1.427,-0.715 2.429,-1.796 3.011,-3.248 0.086,-0.215 0.163,-0.37 0.171,-0.345 0.467,1.537 1.789,2.594 3.691,2.95 0.823,0.154 1.823,0.197 1.937,0.084 0.056,-0.056 -0.024,-0.145 -0.401,-0.447 -0.93,-0.744 -1.343,-1.213 -1.658,-1.88 -0.219,-0.465 -0.267,-0.697 -0.268,-1.307 0,-0.288 0.011,-0.562 0.023,-0.608 l 0.024,-0.083 0.171,0.131 c 1.098,0.844 2.812,1.291 4.457,1.161 2.674,-0.21 5.465,-1.557 8.552,-4.127 0.113,-0.094 0.057,-0.118 -0.108,-0.048 -0.079,0.034 -0.393,0.169 -0.698,0.301 -1.684,0.728 -3.015,1.068 -4.331,1.106 -1.065,0.031 -1.824,-0.115 -2.603,-0.503 -0.277,-0.137 -0.83,-0.501 -0.849,-0.558 -0.004,-0.013 0.135,-0.061 0.309,-0.106 0.665,-0.174 1.609,-0.558 2.271,-0.923 2.382,-1.313 3.734,-3.205 4.038,-5.647 0.054,-0.43 0.046,-1.472 -0.015,-1.963 -0.09,-0.734 -0.273,-1.566 -0.508,-2.303 l -0.099,-0.31 -0.035,0.505 c -0.088,1.273 -0.43,2.397 -1.029,3.389 -0.71,1.176 -1.821,2.107 -3.203,2.684 -0.371,0.155 -0.479,0.186 -0.479,0.137 0,-0.019 0.127,-0.205 0.282,-0.413 0.67,-0.897 1.027,-1.662 1.233,-2.64 0.106,-0.506 0.135,-1.47 0.061,-2.038 -0.19,-1.447 -0.777,-2.904 -1.803,-4.472 -0.138,-0.21 -0.256,-0.382 -0.263,-0.382 -0.008,0 0.033,0.117 0.089,0.261 0.204,0.518 0.375,1.223 0.435,1.787 0.049,0.468 0.018,1.334 -0.062,1.706 -0.144,0.671 -0.405,1.275 -0.773,1.788 -0.332,0.462 -0.868,0.971 -1.368,1.295 -0.317,0.206 -0.337,0.168 -0.215,-0.399 0.153,-0.711 0.168,-1.271 0.048,-1.823 -0.112,-0.514 -0.355,-1.052 -0.681,-1.504 -0.16,-0.223 -0.695,-0.817 -0.716,-0.796 -0.006,0.006 0.023,0.093 0.064,0.193 0.182,0.451 0.212,1.082 0.075,1.567 -0.31,1.095 -1.339,2.071 -3.063,2.906 -0.543,0.263 -0.971,0.415 -1.438,0.513 -0.537,0.112 -1.34,0.081 -1.73,-0.067 l -0.072,-0.027 0.146,-0.093 c 0.45,-0.284 0.803,-0.778 0.93,-1.3 0.065,-0.267 0.067,-0.778 0.005,-1.006 l -0.045,-0.168 0.347,-0.296 c 0.464,-0.398 1.399,-1.315 1.829,-1.795 0.192,-0.215 0.598,-0.691 0.902,-1.06 1.49,-1.801 2.054,-2.661 2.722,-4.154 0.148,-0.33 0.379,-0.836 0.514,-1.124 0.924,-1.976 1.275,-3.291 1.752,-6.563 0.093,-0.634 0.196,-1.315 0.229,-1.513 0.195,-1.15 0.521,-2.442 0.762,-3.019 0.111,-0.264 0.422,-0.803 0.592,-1.027 0.135,-0.176 0.479,-0.524 0.519,-0.524 0.019,0 0.05,-0.019 0.069,-0.042 0.145,-0.175 -0.614,-0.26 -1.076,-0.122 -0.195,0.059 -0.545,0.23 -0.679,0.331 -0.12,0.091 -0.135,0.091 -0.101,0 0.016,-0.04 0.044,-0.217 0.064,-0.394 0.096,-0.857 -0.186,-1.965 -0.79,-3.1 -0.218,-0.409 -0.256,-0.464 -0.322,-0.464 H 28.28 l 0.01,0.21 c 0.005,0.115 0.022,0.324 0.037,0.464 0.05,0.458 0.034,0.496 -0.066,0.167 C 27.724,11.181 26.386,9.146 24.535,7.291 23.182,5.935 21.904,5.012 20.198,4.158 17.734,2.924 14.96,2.196 11.769,1.945 10.646,1.856 8.783,1.831 8.723,1.903 8.682,1.952 8.808,2.041 9.311,2.32 c 0.231,0.128 0.494,0.284 0.585,0.347 0.19,0.132 0.353,0.265 0.324,0.265 -0.011,0 -0.2,-0.066 -0.422,-0.147 C 8.053,2.147 6.474,1.767 5.558,1.764 H 5.371 V 1.494 C 5.371,1.346 5.381,1.225 5.393,1.226 5.481,1.233 5.819,1.34 5.88,1.381 5.925,1.411 6.068,1.442 6.241,1.46 7.056,1.543 7.724,1.257 8.011,0.702 L 8.109,0.514 8.44,0.495 c 0.993,-0.056 2.202,-0.475 3.434,-1.19 1.124,-0.652 2.145,-1.396 4.419,-3.221 0.742,-0.595 1.895,-1.511 2.563,-2.036 2.275,-1.789 4.077,-3.279 5.633,-4.659 3.731,-3.308 4.803,-4.388 5.911,-5.959 l 0.24,-0.339 0.243,-0.114 c 0.294,-0.136 0.513,-0.306 0.693,-0.535 0.471,-0.6 0.604,-1.389 0.363,-2.149 l -0.069,-0.218 0.183,-0.12 c 0.256,-0.168 0.682,-0.377 1.115,-0.547 l 0.369,-0.144 0.204,0.069 c 0.471,0.159 1.185,0.18 1.611,0.046 0.245,-0.077 0.658,-0.288 0.832,-0.426 0.067,-0.053 0.19,-0.12 0.274,-0.148 l 0.153,-0.053 0.345,0.338 c 1.964,1.923 3.651,3.333 7.896,6.601 3.327,2.562 4.57,3.482 5.702,4.221 0.151,0.099 0.275,0.189 0.276,0.2 0,0.012 -0.094,0.166 -0.21,0.344 -0.451,0.693 -0.567,1.315 -0.333,1.791 0.269,0.545 1.033,0.756 1.803,0.496 l 0.179,-0.06 0.292,0.108 c 0.7,0.26 1.603,0.77 2.674,1.511 1.757,1.215 2.217,1.508 3.434,2.182 1.81,1.002 3.17,1.54 4.446,1.759 0.247,0.042 0.298,0.062 0.399,0.153 0.244,0.221 0.77,0.501 1.012,0.539 l 0.119,0.019 v 0.277 0.276 l -0.817,0.018 c -3.076,0.071 -5.777,0.485 -7.873,1.205 -0.858,0.295 -1.826,0.73 -2.564,1.151 -1.081,0.618 -2.14,1.433 -2.956,2.275 -1.77,1.826 -2.665,3.973 -2.902,6.957 -0.067,0.84 -0.025,2.853 0.079,3.81 l 0.019,0.169 -0.176,0.051 c -0.312,0.091 -0.577,0.252 -0.838,0.51 -0.521,0.516 -0.828,1.167 -0.872,1.848 -0.053,0.843 0.337,1.401 1.145,1.638 0.115,0.034 0.442,0.103 0.726,0.154 0.983,0.174 1.276,0.343 1.563,0.9 0.333,0.645 0.466,1.285 0.587,2.832 0.041,0.527 0.083,0.995 0.092,1.038 0.012,0.059 -0.026,0.166 -0.146,0.405 -1.092,2.181 -0.836,5.104 0.643,7.337 l 0.179,0.27 -0.863,-0.856 C 48.734,30.291 48.14,29.765 47.966,29.711 47.865,29.68 47.757,29.79 47.683,30 c -0.084,0.237 -0.114,0.802 -0.06,1.114 0.063,0.36 0.234,0.838 0.46,1.284 0.587,1.16 1.575,2.329 2.667,3.157 0.168,0.127 0.318,0.243 0.335,0.258 0.016,0.016 -0.101,-0.036 -0.261,-0.115 l -0.29,-0.144 -0.064,0.057 c -0.042,0.038 -0.057,0.078 -0.045,0.119 0.01,0.033 0.022,0.088 0.027,0.122 0.009,0.064 0.214,0.36 0.496,0.718 1.023,1.296 2.205,2.323 3.553,3.088 1.2,0.681 2.824,1.253 4.42,1.558 l 0.435,0.082 0.247,0.234 c 1.238,1.168 3.085,1.948 5.281,2.228 1.9,0.242 4.185,0.035 6.303,-0.57 1.191,-0.34 2.822,-1.004 3.586,-1.46 l 0.285,-0.17 -0.258,0.247 c -0.142,0.136 -0.448,0.395 -0.681,0.576 -0.446,0.348 -0.497,0.415 -0.42,0.553 0.038,0.068 0.064,0.078 0.236,0.086 0.471,0.023 1.256,-0.194 1.942,-0.535 1.167,-0.581 2.1,-1.44 2.663,-2.451 0.089,-0.159 0.155,-0.256 0.147,-0.215 -0.009,0.041 -0.037,0.23 -0.063,0.42 -0.026,0.189 -0.103,0.614 -0.171,0.944 -0.153,0.737 -0.158,0.819 -0.047,0.882 0.067,0.038 0.098,0.039 0.177,0.01 0.202,-0.076 0.436,-0.242 0.686,-0.487 0.513,-0.502 0.893,-1.176 1.098,-1.948 0.059,-0.224 0.079,-0.386 0.092,-0.757 0.009,-0.259 0.02,-0.472 0.024,-0.472 0.004,0 0.101,0.042 0.214,0.092 0.283,0.128 0.803,0.28 1.179,0.347 0.426,0.075 1.388,0.076 1.79,0.001 0.714,-0.133 1.439,-0.435 1.792,-0.745 0.119,-0.104 0.141,-0.251 0.051,-0.333 -0.032,-0.028 -0.27,-0.092 -0.577,-0.154 -0.288,-0.058 -0.704,-0.15 -0.924,-0.204 l -0.4,-0.098 0.64,-0.001 c 0.696,0 0.995,-0.036 1.646,-0.195 0.457,-0.112 0.851,-0.259 1.292,-0.483 0.882,-0.448 1.547,-1.106 1.87,-1.853 0.147,-0.338 0.156,-0.416 0.06,-0.506 l -0.077,-0.072 -0.532,0.019 c -0.293,0.01 -0.594,0.026 -0.668,0.036 -0.095,0.012 -0.029,-0.02 0.225,-0.107 2.865,-0.989 4.895,-3.571 6.114,-7.779 0.437,-1.511 0.807,-3.392 0.956,-4.866 0.12,-1.177 0.136,-3.028 0.033,-3.671 -0.138,-0.86 -0.401,-1.612 -0.667,-1.906 -0.281,-0.311 -0.608,-0.316 -0.867,-0.013 l -0.121,0.141 -0.02,-0.744 C 93.481,14.91 93.458,14.325 93.441,14.02 93.303,11.497 92.825,9.959 91.886,9.013 91.573,8.698 91.498,8.647 91.39,8.674 91.326,8.69 91.29,8.736 91.22,8.893 91.123,9.107 90.878,9.832 90.789,10.169 L 90.734,10.377 90.669,9.989 C 90.561,9.336 90.262,8.328 89.915,7.443 89.527,6.456 89.097,5.999 88.524,5.965 L 88.326,5.953 88.204,6.063 C 87.978,6.267 87.88,6.703 87.906,7.387 L 87.921,7.788 87.765,7.479 C 87.108,6.179 85.886,4.795 84.237,3.481 82.816,2.349 81.579,1.879 80.54,2.078 c -0.127,0.025 -0.257,0.067 -0.287,0.095 -0.077,0.07 -0.069,0.201 0.022,0.357 0.043,0.073 0.069,0.133 0.059,0.133 -0.011,0 -0.097,-0.052 -0.19,-0.115 C 78.842,1.669 76.551,0.741 74.819,0.389 73.958,0.215 73.72,0.191 72.871,0.196 c -0.62,0.003 -0.84,0.015 -1.079,0.06 l -0.3,0.056 -0.389,-0.097 C 70.888,0.162 70.575,0.089 70.406,0.053 l -0.307,-0.065 v -0.46 c 0,-0.254 0.01,-0.46 0.022,-0.46 0.013,0.001 0.104,0.021 0.203,0.045 0.098,0.024 0.295,0.043 0.436,0.044 0.419,0 0.684,-0.106 0.915,-0.367 l 0.117,-0.133 0.33,-0.018 c 0.381,-0.02 0.663,-0.076 1.045,-0.204 0.792,-0.265 1.794,-0.918 2.895,-1.888 1.492,-1.314 2.428,-2.205 4.012,-3.818 0.96,-0.978 1.332,-1.379 1.675,-1.805 0.211,-0.262 0.23,-0.277 0.337,-0.277 0.187,0 0.779,-0.113 1.011,-0.192 0.646,-0.222 1.033,-0.601 1.143,-1.121 0.072,-0.345 0.013,-0.867 -0.151,-1.324 -0.142,-0.399 -0.144,-0.37 0.039,-0.563 0.675,-0.715 1.691,-2.139 2.751,-3.858 0.663,-1.074 1.029,-1.644 2.102,-3.27 1.686,-2.556 2.277,-3.517 3.013,-4.893 l 0.248,-0.464 0.638,-0.002 c 0.591,-0.002 0.664,-0.008 0.997,-0.087 1.67,-0.394 3.166,-1.562 3.985,-3.112 0.45,-0.852 0.684,-1.745 0.686,-2.615 0.001,-0.49 -0.041,-0.782 -0.193,-1.357 -0.216,-0.818 -0.577,-1.371 -1.068,-1.633 -0.177,-0.095 -0.19,-0.11 -0.322,-0.372 -0.328,-0.656 -0.706,-0.979 -1.084,-0.927 -0.117,0.016 -0.126,0.012 -0.144,-0.065 -0.011,-0.045 -0.079,-0.204 -0.152,-0.355 -0.17,-0.352 -0.397,-0.589 -0.708,-0.741 -0.31,-0.152 -0.577,-0.193 -0.88,-0.134 l -0.233,0.045 -0.016,-0.062 c -0.043,-0.163 -0.259,-0.532 -0.41,-0.699 -0.544,-0.602 -1.432,-0.519 -2.144,0.198 -0.368,0.371 -0.627,0.816 -0.765,1.313 l -0.051,0.182 -0.318,0.014 c -0.239,0.012 -0.368,0.034 -0.52,0.09 -0.759,0.282 -1.292,0.96 -1.501,1.911 -0.086,0.391 -0.092,1.601 -0.011,2.128 0.078,0.497 0.282,1.493 0.368,1.794 0.077,0.269 0.238,0.637 0.341,0.782 0.033,0.047 0.06,0.101 0.06,0.121 0,0.047 -0.881,1.543 -1.552,2.637 -1.207,1.964 -2.293,3.581 -3.326,4.95 -0.96,1.272 -2.306,2.988 -2.851,3.635 -0.251,0.297 -0.991,1.124 -1.006,1.124 -0.003,0 -0.134,-0.06 -0.288,-0.134 -0.325,-0.153 -0.727,-0.29 -1.065,-0.362 -0.29,-0.062 -1.024,-0.091 -1.209,-0.048 -0.074,0.017 -0.144,0.022 -0.155,0.01 -0.011,-0.011 -0.036,-0.317 -0.055,-0.68 -0.078,-1.478 0.111,-3.051 0.551,-4.585 0.189,-0.656 0.361,-1.153 0.708,-2.038 0.728,-1.86 0.922,-2.584 0.95,-3.551 0.019,-0.651 -0.018,-0.895 -0.19,-1.256 -0.212,-0.443 -0.707,-0.828 -1.259,-0.979 l -0.185,-0.05 0.044,-0.123 c 0.085,-0.241 0.19,-0.849 0.225,-1.3 0.038,-0.49 0.01,-1.068 -0.081,-1.671 -0.097,-0.646 -0.383,-1.787 -0.722,-2.88 l -0.168,-0.542 0.149,-0.222 c 0.276,-0.41 0.486,-0.796 1.039,-1.904 0.745,-1.496 1.392,-2.678 2.011,-3.68 0.107,-0.173 0.195,-0.348 0.195,-0.389 0,-0.147 -0.622,-0.788 -1.139,-1.175 -0.423,-0.317 -1.969,-1.332 -2.637,-1.732 -0.892,-0.534 -1.937,-1.029 -2.982,-1.412 -0.214,-0.079 -0.392,-0.145 -0.395,-0.146 -0.003,-10e-4 0.039,-0.138 0.094,-0.302 0.175,-0.524 1.121,-2.254 2.025,-3.7 0.756,-1.21 1.701,-2.578 2.483,-3.596 2.286,-2.973 3.793,-4.676 5.231,-5.908 l 0.477,-0.41 0.131,0.146 c 0.202,0.225 0.375,0.281 0.862,0.279 0.807,-0.004 1.338,-0.259 2.059,-0.99 0.76,-0.769 1.309,-1.65 2.111,-3.391 0.159,-0.346 0.28,-0.648 0.28,-0.7 0,-0.205 -0.167,-0.888 -0.52,-2.122 -0.483,-1.689 -0.599,-2.028 -0.97,-2.832 -0.863,-1.874 -2.161,-3.356 -3.649,-4.168 -1.134,-0.619 -2.596,-1.01 -4.435,-1.187 -0.572,-0.054 -2.301,-0.045 -2.937,0.017 -0.28,0.027 -0.914,0.063 -1.408,0.08 -1.73,0.06 -2.554,0.179 -3.327,0.481 -0.738,0.288 -1.265,0.732 -1.545,1.301 -0.184,0.376 -0.223,0.561 -0.22,1.064 0.002,0.372 0.014,0.478 0.082,0.734 0.09,0.335 0.282,0.757 0.474,1.041 0.397,0.584 1.282,1.302 2.189,1.775 0.69,0.361 1.244,0.569 2.616,0.986 0.462,0.14 0.995,0.317 1.184,0.393 0.895,0.36 1.435,0.807 1.739,1.439 0.063,0.132 0.218,0.543 0.344,0.914 0.126,0.371 0.293,0.804 0.372,0.964 l 0.144,0.289 -0.252,0.2 c -0.589,0.468 -1.726,1.595 -3.343,3.312 -0.735,0.78 -0.854,0.919 -0.813,0.949 0.04,0.03 0.014,0.07 -0.191,0.285 -0.373,0.392 -1.979,2.142 -2.527,2.752 -2.285,2.549 -3.675,4.526 -4.664,6.637 -0.226,0.483 -0.531,1.233 -0.652,1.603 -0.046,0.14 -0.092,0.264 -0.102,0.275 -0.01,0.011 -0.214,0.042 -0.453,0.069 -0.445,0.049 -1.651,0.23 -2.428,0.363 -2.238,0.384 -4.097,0.922 -5.887,1.703 l -0.441,0.193 -0.314,-0.48 c -0.935,-1.427 -1.946,-3.19 -2.78,-4.85 -0.927,-1.843 -1.504,-3.23 -2.165,-5.199 -0.33,-0.984 -0.665,-2.096 -0.664,-2.203 0,-0.041 -0.087,-0.385 -0.195,-0.764 -0.421,-1.487 -0.764,-2.858 -1.578,-6.308 l -0.512,-2.172 0.082,-0.06 c 0.206,-0.151 0.317,-0.276 0.405,-0.456 l 0.096,-0.195 -0.002,-0.379 c -0.002,-0.44 -0.061,-0.801 -0.281,-1.727 -0.318,-1.339 -0.639,-2.381 -0.89,-2.884 -0.096,-0.194 -0.19,-0.394 -0.208,-0.446 -0.028,-0.083 -0.053,-0.098 -0.237,-0.144 -0.373,-0.094 -0.834,-0.123 -1.287,-0.082 -0.517,0.046 -0.887,0.117 -1.685,0.321 -2.79,0.714 -4.345,1.279 -7.505,2.722 -2.561,1.171 -3.7,1.758 -5.281,2.724 -1.098,0.672 -2.012,1.305 -2.513,1.742 l -0.221,0.192 -0.018,-0.236 c -0.046,-0.6 -0.292,-1.116 -0.777,-1.635 -0.252,-0.269 -0.551,-0.513 -1.199,-0.977 -1.032,-0.739 -1.615,-1.217 -3.084,-2.53 -2.425,-2.169 -3.684,-3.041 -5.308,-3.68 -2.166,-0.851 -4.49,-1.327 -7.168,-1.467 -0.115,-0.007 -0.358,0 -0.539,0.015 z"
           style="fill:#1a1a1a;fill-opacity:1;fill-rule:nonzero;stroke:none"
           id="path270" />
      </g>
      <text
         xml:space="preserve"
         style="font-style:normal;font-variant:normal;font-weight:normal;font-stretch:normal;font-size:29.553px;font-family:Cantarell;-inkscape-font-specification:'Cantarell, Normal';font-variant-ligatures:normal;font-variant-caps:normal;font-variant-numeric:normal;font-variant-east-asian:normal;text-align:center;text-anchor:middle;fill:#000000;stroke:none;stroke-width:2.46275"
         x="755.95197"
         y="-586.66125"
         id="text4991"
         transform="scale(1,-1)"><tspan
           sodipodi:role="line"
           id="tspan4989"
           style="font-style:normal;font-variant:normal;font-weight:normal;font-stretch:normal;font-size:29.553px;font-family:Cantarell;-inkscape-font-specification:'Cantarell, @wght=700';font-variant-ligatures:normal;font-variant-caps:normal;font-variant-numeric:normal;font-variant-east-asian:normal;font-variation-settings:'wght' 700;text-align:center;text-anchor:middle;stroke:none;stroke-width:2.46275"
           x="755.95197"
           y="-586.66125">Sembrar y Crecer</tspan><tspan
           sodipodi:role="line"
           style="font-style:normal;font-variant:normal;font-weight:normal;font-stretch:normal;font-size:29.553px;font-family:Cantarell;-inkscape-font-specification:'Cantarell, @wght=300';font-variant-ligatures:normal;font-variant-caps:normal;font-variant-numeric:normal;font-variant-east-asian:normal;font-variation-settings:'wght' 300;text-align:center;text-anchor:middle;stroke:none;stroke-width:2.46275"
           x="755.95197"
           y="-549.72003"
           id="tspan6377">Colombia</tspan></text>
    </g>
  </g>
</svg>
