<?xml version="1.0" encoding="UTF-8" standalone="no"?>
<!-- Created with Inkscape (http://www.inkscape.org/) -->

<svg
   width="136px"
   height="62px"
   viewBox="0 0 136 62"
   version="1.1"
   id="SVGRoot"
   sodipodi:docname="logo.svg"
   inkscape:version="1.2.2 (b0a8486541, 2022-12-01)"
   inkscape:export-filename="logo.png"
   inkscape:export-xdpi="96"
   inkscape:export-ydpi="96"
   xmlns:inkscape="http://www.inkscape.org/namespaces/inkscape"
   xmlns:sodipodi="http://sodipodi.sourceforge.net/DTD/sodipodi-0.dtd"
   xmlns="http://www.w3.org/2000/svg"
   xmlns:svg="http://www.w3.org/2000/svg">
  <sodipodi:namedview
     id="namedview3924"
     pagecolor="#ffffff"
     bordercolor="#000000"
     borderopacity="0.25"
     inkscape:showpageshadow="2"
     inkscape:pageopacity="0.0"
     inkscape:pagecheckerboard="0"
     inkscape:deskcolor="#d1d1d1"
     inkscape:document-units="px"
     showgrid="false"
     inkscape:zoom="3.3461785"
     inkscape:cx="60.367372"
     inkscape:cy="38.402016"
     inkscape:window-width="1600"
     inkscape:window-height="836"
     inkscape:window-x="0"
     inkscape:window-y="27"
     inkscape:window-maximized="1"
     inkscape:current-layer="layer1"
     inkscape:lockguides="false" />
  <defs
     id="defs3919">
    <clipPath
       clipPathUnits="userSpaceOnUse"
       id="clipPath558">
      <path
         d="M 633.824,617.17 H 866.527 V 583.111 H 633.824 Z"
         id="path556" />
    </clipPath>
    <clipPath
       clipPathUnits="userSpaceOnUse"
       id="clipPath566">
      <path
         d="m 687.525,582.397 h 124.892 v -34.06 H 687.525 Z"
         id="path564" />
    </clipPath>
    <clipPath
       clipPathUnits="userSpaceOnUse"
       id="clipPath5685">
      <g
         id="g5695">
        <g
           id="g5693">
          <g
             id="g5691">
            <g
               id="g5689">
              <path
                 d="M 62.237617,25.265302 H 126.28207 V 44.2095 H 62.237617 Z"
                 id="path5687"
                 style="stroke-width:0.27522" />
            </g>
          </g>
        </g>
      </g>
    </clipPath>
    <clipPath
       clipPathUnits="userSpaceOnUse"
       id="clipPath5733">
      <g
         id="g5743">
        <g
           id="g5741">
          <g
             id="g5739">
            <g
               id="g5737">
              <path
                 d="M 62.237617,25.265302 H 126.28207 V 44.2095 H 62.237617 Z"
                 id="path5735"
                 style="stroke-width:0.27522" />
            </g>
          </g>
        </g>
      </g>
    </clipPath>
    <clipPath
       clipPathUnits="userSpaceOnUse"
       id="clipPath5788">
      <g
         id="g5800">
        <g
           id="g5798">
          <g
             id="g5796">
            <g
               id="g5794">
              <g
                 id="g5792">
                <path
                   d="M 62.237617,25.265302 H 126.28207 V 44.2095 H 62.237617 Z"
                   id="path5790"
                   style="stroke-width:0.27522" />
              </g>
            </g>
          </g>
        </g>
      </g>
    </clipPath>
    <clipPath
       clipPathUnits="userSpaceOnUse"
       id="clipPath5815">
      <g
         id="g5827">
        <g
           id="g5825">
          <g
             id="g5823">
            <g
               id="g5821">
              <g
                 id="g5819">
                <path
                   d="M 62.237617,25.265302 H 126.28207 V 44.2095 H 62.237617 Z"
                   id="path5817"
                   style="stroke-width:0.27522" />
              </g>
            </g>
          </g>
        </g>
      </g>
    </clipPath>
    <clipPath
       clipPathUnits="userSpaceOnUse"
       id="clipPath5842">
      <g
         id="g5854">
        <g
           id="g5852">
          <g
             id="g5850">
            <g
               id="g5848">
              <g
                 id="g5846">
                <path
                   d="M 62.237617,25.265302 H 126.28207 V 44.2095 H 62.237617 Z"
                   id="path5844"
                   style="stroke-width:0.27522" />
              </g>
            </g>
          </g>
        </g>
      </g>
    </clipPath>
    <clipPath
       clipPathUnits="userSpaceOnUse"
       id="clipPath5869">
      <g
         id="g5881">
        <g
           id="g5879">
          <g
             id="g5877">
            <g
               id="g5875">
              <g
                 id="g5873">
                <path
                   d="M 62.237617,25.265302 H 126.28207 V 44.2095 H 62.237617 Z"
                   id="path5871"
                   style="stroke-width:0.27522" />
              </g>
            </g>
          </g>
        </g>
      </g>
    </clipPath>
    <clipPath
       clipPathUnits="userSpaceOnUse"
       id="clipPath5896">
      <g
         id="g5908">
        <g
           id="g5906">
          <g
             id="g5904">
            <g
               id="g5902">
              <g
                 id="g5900">
                <path
                   d="M 62.237617,25.265302 H 126.28207 V 44.2095 H 62.237617 Z"
                   id="path5898"
                   style="stroke-width:0.27522" />
              </g>
            </g>
          </g>
        </g>
      </g>
    </clipPath>
    <clipPath
       clipPathUnits="userSpaceOnUse"
       id="clipPath5923">
      <g
         id="g5935">
        <g
           id="g5933">
          <g
             id="g5931">
            <g
               id="g5929">
              <g
                 id="g5927">
                <path
                   d="M 62.237617,25.265302 H 126.28207 V 44.2095 H 62.237617 Z"
                   id="path5925"
                   style="stroke-width:0.27522" />
              </g>
            </g>
          </g>
        </g>
      </g>
    </clipPath>
    <clipPath
       clipPathUnits="userSpaceOnUse"
       id="clipPath5950">
      <g
         id="g5962">
        <g
           id="g5960">
          <g
             id="g5958">
            <g
               id="g5956">
              <g
                 id="g5954">
                <path
                   d="M 62.237617,25.265302 H 126.28207 V 44.2095 H 62.237617 Z"
                   id="path5952"
                   style="stroke-width:0.27522" />
              </g>
            </g>
          </g>
        </g>
      </g>
    </clipPath>
    <clipPath
       clipPathUnits="userSpaceOnUse"
       id="clipPath5977">
      <g
         id="g5989">
        <g
           id="g5987">
          <g
             id="g5985">
            <g
               id="g5983">
              <g
                 id="g5981">
                <path
                   d="M 62.237617,25.265302 H 126.28207 V 44.2095 H 62.237617 Z"
                   id="path5979"
                   style="stroke-width:0.27522" />
              </g>
            </g>
          </g>
        </g>
      </g>
    </clipPath>
    <clipPath
       clipPathUnits="userSpaceOnUse"
       id="clipPath6004">
      <g
         id="g6016">
        <g
           id="g6014">
          <g
             id="g6012">
            <g
               id="g6010">
              <g
                 id="g6008">
                <path
                   d="M 62.237617,25.265302 H 126.28207 V 44.2095 H 62.237617 Z"
                   id="path6006"
                   style="stroke-width:0.27522" />
              </g>
            </g>
          </g>
        </g>
      </g>
    </clipPath>
    <clipPath
       clipPathUnits="userSpaceOnUse"
       id="clipPath6031">
      <g
         id="g6043">
        <g
           id="g6041">
          <g
             id="g6039">
            <g
               id="g6037">
              <g
                 id="g6035">
                <path
                   d="M 62.237617,25.265302 H 126.28207 V 44.2095 H 62.237617 Z"
                   id="path6033"
                   style="stroke-width:0.27522" />
              </g>
            </g>
          </g>
        </g>
      </g>
    </clipPath>
    <clipPath
       clipPathUnits="userSpaceOnUse"
       id="clipPath6058">
      <g
         id="g6070">
        <g
           id="g6068">
          <g
             id="g6066">
            <g
               id="g6064">
              <g
                 id="g6062">
                <path
                   d="M 62.237617,25.265302 H 126.28207 V 44.2095 H 62.237617 Z"
                   id="path6060"
                   style="stroke-width:0.27522" />
              </g>
            </g>
          </g>
        </g>
      </g>
    </clipPath>
    <clipPath
       clipPathUnits="userSpaceOnUse"
       id="clipPath6085">
      <g
         id="g6097">
        <g
           id="g6095">
          <g
             id="g6093">
            <g
               id="g6091">
              <g
                 id="g6089">
                <path
                   d="M 62.237617,25.265302 H 126.28207 V 44.2095 H 62.237617 Z"
                   id="path6087"
                   style="stroke-width:0.27522" />
              </g>
            </g>
          </g>
        </g>
      </g>
    </clipPath>
    <clipPath
       clipPathUnits="userSpaceOnUse"
       id="clipPath6112">
      <g
         id="g6124">
        <g
           id="g6122">
          <g
             id="g6120">
            <g
               id="g6118">
              <g
                 id="g6116">
                <path
                   d="M 62.237617,25.265302 H 126.28207 V 44.2095 H 62.237617 Z"
                   id="path6114"
                   style="stroke-width:0.27522" />
              </g>
            </g>
          </g>
        </g>
      </g>
    </clipPath>
    <clipPath
       clipPathUnits="userSpaceOnUse"
       id="clipPath6139">
      <g
         id="g6151">
        <g
           id="g6149">
          <g
             id="g6147">
            <g
               id="g6145">
              <g
                 id="g6143">
                <path
                   d="M 62.237617,25.265302 H 126.28207 V 44.2095 H 62.237617 Z"
                   id="path6141"
                   style="stroke-width:0.27522" />
              </g>
            </g>
          </g>
        </g>
      </g>
    </clipPath>
    <clipPath
       clipPathUnits="userSpaceOnUse"
       id="clipPath6166">
      <g
         id="g6178">
        <g
           id="g6176">
          <g
             id="g6174">
            <g
               id="g6172">
              <g
                 id="g6170">
                <path
                   d="M 62.237617,25.265302 H 126.28207 V 44.2095 H 62.237617 Z"
                   id="path6168"
                   style="stroke-width:0.27522" />
              </g>
            </g>
          </g>
        </g>
      </g>
    </clipPath>
    <clipPath
       clipPathUnits="userSpaceOnUse"
       id="clipPath6193">
      <g
         id="g6205">
        <g
           id="g6203">
          <g
             id="g6201">
            <g
               id="g6199">
              <g
                 id="g6197">
                <path
                   d="M 62.237617,25.265302 H 126.28207 V 44.2095 H 62.237617 Z"
                   id="path6195"
                   style="stroke-width:0.27522" />
              </g>
            </g>
          </g>
        </g>
      </g>
    </clipPath>
    <clipPath
       clipPathUnits="userSpaceOnUse"
       id="clipPath6220">
      <g
         id="g6232">
        <g
           id="g6230">
          <g
             id="g6228">
            <g
               id="g6226">
              <g
                 id="g6224">
                <path
                   d="M 62.237617,25.265302 H 126.28207 V 44.2095 H 62.237617 Z"
                   id="path6222"
                   style="stroke-width:0.27522" />
              </g>
            </g>
          </g>
        </g>
      </g>
    </clipPath>
    <clipPath
       clipPathUnits="userSpaceOnUse"
       id="clipPath6247">
      <g
         id="g6259">
        <g
           id="g6257">
          <g
             id="g6255">
            <g
               id="g6253">
              <g
                 id="g6251">
                <path
                   d="M 62.237617,25.265302 H 126.28207 V 44.2095 H 62.237617 Z"
                   id="path6249"
                   style="stroke-width:0.27522" />
              </g>
            </g>
          </g>
        </g>
      </g>
    </clipPath>
    <clipPath
       clipPathUnits="userSpaceOnUse"
       id="clipPath6274">
      <g
         id="g6286">
        <g
           id="g6284">
          <g
             id="g6282">
            <g
               id="g6280">
              <g
                 id="g6278">
                <path
                   d="M 62.237617,25.265302 H 126.28207 V 44.2095 H 62.237617 Z"
                   id="path6276"
                   style="stroke-width:0.27522" />
              </g>
            </g>
          </g>
        </g>
      </g>
    </clipPath>
    <clipPath
       clipPathUnits="userSpaceOnUse"
       id="clipPath6301">
      <g
         id="g6313">
        <g
           id="g6311">
          <g
             id="g6309">
            <g
               id="g6307">
              <g
                 id="g6305">
                <path
                   d="M 62.237617,25.265302 H 126.28207 V 44.2095 H 62.237617 Z"
                   id="path6303"
                   style="stroke-width:0.27522" />
              </g>
            </g>
          </g>
        </g>
      </g>
    </clipPath>
    <clipPath
       clipPathUnits="userSpaceOnUse"
       id="clipPath6328">
      <g
         id="g6340">
        <g
           id="g6338">
          <g
             id="g6336">
            <g
               id="g6334">
              <g
                 id="g6332">
                <path
                   d="M 62.237617,25.265302 H 126.28207 V 44.2095 H 62.237617 Z"
                   id="path6330"
                   style="stroke-width:0.27522" />
              </g>
            </g>
          </g>
        </g>
      </g>
    </clipPath>
    <clipPath
       clipPathUnits="userSpaceOnUse"
       id="clipPath6355">
      <g
         id="g6367">
        <g
           id="g6365">
          <g
             id="g6363">
            <g
               id="g6361">
              <g
                 id="g6359">
                <path
                   d="M 62.237617,25.265302 H 126.28207 V 44.2095 H 62.237617 Z"
                   id="path6357"
                   style="stroke-width:0.27522" />
              </g>
            </g>
          </g>
        </g>
      </g>
    </clipPath>
  </defs>
  <g
     inkscape:label="Layer 1"
     inkscape:groupmode="layer"
     id="layer1">
    <g
       id="g6383"
       transform="matrix(1.0755008,0,0,1.0755008,-3.5296798,-0.61816104)">
      <path
         d="m 12.460461,24.19539 c 0.10041,-0.07369 0.402411,-0.248398 0.6712,-0.387736 0.636752,-0.329807 4.048672,-2.630115 5.059257,-3.41053 2.171629,-1.677923 5.594363,-4.818274 7.571043,-6.947577 0.704876,-0.758942 1.337303,-1.439411 1.406508,-1.512015 0.501585,-0.527537 2.300154,-2.5987563 2.497883,-2.8765048 L 29.910425,8.718244 29.15658,8.0654267 C 27.753935,6.8510876 27.37176,5.8252098 28.030293,5.0426323 c 0.265699,-0.3157498 0.402411,-0.3755321 0.860124,-0.3755321 0.414306,0 0.614508,0.071214 0.843287,0.2999931 l 0.299375,0.2993753 0.299376,-0.2993753 c 0.507918,-0.5079184 1.601148,-0.3522062 1.88384,0.2689435 0.217502,0.4777955 0.157102,0.9151182 -0.218585,1.5691713 -0.336913,0.5879373 -1.175256,1.4642819 -1.65954,1.735697 -0.219974,0.1226543 -0.21364,0.1520048 0.125744,0.5987506 0.744422,0.9795353 3.706198,4.2088643 3.928026,4.2825493 0.111996,0.03692 0.157721,-0.387736 0.183055,-1.698159 l 0.03429,-1.7485185 0.997917,-0.034912 0.9973,-0.035684 0.3451,0.4314525 0.344483,0.431762 0.06102,2.892416 0.06102,2.892108 1.403264,1.271649 c 2.405043,2.179972 5.229026,4.281932 7.833498,5.831485 1.364027,0.811001 1.019545,0.749983 -0.816562,-0.145517 -3.912733,-1.907938 -8.273447,-5.250499 -13.278174,-10.178142 -1.329424,-1.309342 -2.462045,-2.380327 -2.51673,-2.380327 -0.05468,0 -1.138954,1.016301 -2.409523,2.257519 -2.904156,2.839122 -3.945173,3.777875 -6.073085,5.479278 -2.774242,2.218281 -5.14252,3.771696 -7.450861,4.887788 -1.233649,0.596279 -2.015608,0.889784 -1.647491,0.618987"
         style="fill:#1a1a1a;fill-opacity:1;fill-rule:nonzero;stroke:none;stroke-width:0.154476"
         id="path258" />
      <path
         d="m 32.957059,53.379562 -0.500967,-0.05036 0.375687,-0.108752 c 0.206535,-0.05963 0.582221,-0.165753 0.834945,-0.235267 2.57265,-0.710901 5.02867,-2.025958 6.650518,-3.561145 0.882215,-0.835254 1.110994,-1.157492 1.893572,-2.666726 0.763422,-1.473242 0.947867,-1.775861 1.506608,-2.469769 0.5504,-0.684022 1.207851,-1.173557 2.337537,-1.740177 0.50004,-0.25087 1.06357,-0.555651 1.252341,-0.677379 0.928248,-0.599214 1.801812,-1.530089 2.640156,-2.812861 0.738706,-1.130149 1.06357,-1.385808 1.370051,-1.079172 0.380476,0.380475 -0.03908,1.691826 -1.182671,3.693685 -0.296595,0.519659 -0.519195,0.965323 -0.494325,0.990194 0.159883,0.159883 1.563147,-1.220981 2.486762,-2.447215 1.291268,-1.713607 2.160043,-3.657693 2.160043,-4.832486 0,-0.669191 0.516106,-1.010584 0.903533,-0.597978 0.218738,0.232796 0.22569,0.450144 0.05051,1.629881 -0.464974,3.129692 -1.922304,6.370761 -4.098568,9.113181 -0.851783,1.07392 -2.790616,2.960232 -3.868089,3.764127 -0.95281,0.710591 -1.955362,1.341936 -2.838504,1.786211 -0.252723,0.127443 -0.594425,0.30092 -0.75956,0.385727 -0.55488,0.285627 -2.578521,0.994056 -3.564235,1.247552 -2.310194,0.594888 -5.210026,0.865685 -7.155347,0.668728"
         style="fill:#1a1a1a;fill-opacity:1;fill-rule:nonzero;stroke:none;stroke-width:0.154476"
         id="path262" />
      <path
         d="M 22.817082,53.056127 C 18.713725,52.698205 14.830961,51.196386 11.849566,48.813432 10.054395,47.378964 8.2664855,45.355478 7.0572442,43.38992 5.6155158,41.047594 4.5470025,37.894576 4.4927813,35.824438 c -0.015139,-0.581604 0.0034,-0.684948 0.1390288,-0.784895 0.086043,-0.06303 0.2405197,-0.11493 0.3426286,-0.11493 0.3257908,0 0.4787224,0.246081 0.5357242,0.861978 0.1739405,1.871018 1.6054734,4.353609 3.6289599,6.29306 0.9594532,0.920062 1.0601712,0.909557 0.5063736,-0.05237 -1.4080525,-2.446443 -1.7985688,-3.958458 -1.0220159,-3.958458 0.264927,0 0.4291355,0.184753 1.1593455,1.300846 0.546229,0.835253 1.42937,1.79965 2.148612,2.345878 0.288871,0.219666 0.906622,0.581758 1.372214,0.804205 1.902532,0.91002 2.567398,1.628335 3.900993,4.21597 0.342938,0.665021 0.802814,1.435086 1.022016,1.711135 1.018154,1.281536 3.157652,2.728362 5.283711,3.572885 0.68155,0.270797 2.274974,0.802968 2.40597,0.803277 0.04696,4.64e-4 0.23017,0.04418 0.407818,0.09747 l 0.322392,0.09686 -0.483665,0.05561 c -0.652045,0.07384 -2.405198,0.06534 -3.345805,-0.01684"
         style="fill:#1a1a1a;fill-opacity:1;fill-rule:nonzero;stroke:none;stroke-width:0.154476"
         id="path266" />
      <path
         d="m 25.436635,28.203295 c -0.0011,-0.0034 -0.0032,-0.0014 -0.0049,0.0049 -0.002,0.0076 -0.0014,0.0094 0.002,0.006 0.0028,-0.0028 0.004,-0.0076 0.0029,-0.01097 z m 6.583939,10.029226 c 0.0224,-0.02317 0.09083,-0.06828 0.123118,-0.08094 0.01807,-0.0071 0.04001,-0.01128 0.06642,-0.01251 0.05407,-0.0025 0.08249,0.0083 0.122499,0.04681 l 0.02966,0.02858 0.0025,-0.04171 c 0.0014,-0.02286 0.0046,-0.07816 0.0074,-0.122654 0.02626,-0.43238 0.179965,-1.178192 0.338149,-1.641003 0.16668,-0.488146 0.485211,-1.115783 0.788757,-1.55496 l 0.04449,-0.06442 -0.0502,-0.05129 c -0.05252,-0.05391 -0.08882,-0.09562 -0.09747,-0.11215 -0.0056,-0.01081 -0.002,-0.01776 0.09531,-0.182283 0.174095,-0.293814 0.352052,-0.553797 0.496024,-0.724494 0.04356,-0.05159 0.04665,-0.05669 0.04449,-0.07168 -0.0012,-0.009 -0.0036,-0.05793 -0.0051,-0.108751 -0.0034,-0.104581 0.0012,-0.164363 0.02796,-0.370435 0.009,-0.06874 0.019,-0.148297 0.0224,-0.176875 l 0.006,-0.0519 -0.0326,-0.0099 c -0.107207,-0.03259 -0.19603,-0.116166 -0.242837,-0.228316 -0.02564,-0.06179 -0.03028,-0.08929 -0.03012,-0.178729 1.55e-4,-0.09346 0.0083,-0.141037 0.0482,-0.2847 0.06473,-0.233105 0.07106,-0.26848 0.106434,-0.596897 0.02626,-0.244536 0.04588,-0.361784 0.09083,-0.541903 0.05484,-0.219511 0.162664,-0.547001 0.267399,-0.811465 0.02132,-0.05391 0.03692,-0.09686 0.03476,-0.09547 -0.140882,0.08697 -0.310497,0.221364 -0.344791,0.273114 -0.03584,0.05391 -0.08234,0.08079 -0.139801,0.08064 -0.06751,-3.09e-4 -0.115549,-0.02194 -0.170851,-0.07693 l -0.038,-0.03769 -0.115085,0.06596 c -0.128834,0.07384 -0.164981,0.09624 -0.304319,0.189079 -0.263228,0.175485 -0.532017,0.370125 -0.760487,0.550399 -0.186917,0.14768 -0.350198,0.28331 -0.832783,0.692363 l -0.176412,0.149379 -3.09e-4,0.03754 c -0.0019,0.127597 -0.07214,0.294586 -0.192632,0.457559 l -0.02904,0.03924 -0.0032,0.03939 c -0.01946,0.239592 -0.08774,0.368426 -0.213023,0.402256 -0.01668,0.0045 -0.02024,0.0082 -0.03445,0.0363 -0.01081,0.02101 -0.02827,0.04372 -0.05376,0.06936 l -0.03769,0.03816 -0.0056,0.04063 c -0.0087,0.06179 -0.02981,0.120028 -0.06086,0.166834 -0.03012,0.04557 -0.05144,0.06225 -0.09114,0.07106 -0.06735,0.01514 -0.126517,-0.02271 -0.182283,-0.11663 l -0.01869,-0.03151 -0.02765,0.01792 c -0.0519,0.03352 -0.135475,0.05407 -0.200819,0.04959 -0.109987,-0.0079 -0.163127,-0.07399 -0.129606,-0.161273 0.0019,-0.0051 -0.0039,-0.009 -0.02209,-0.01468 -0.05793,-0.01823 -0.09469,-0.07507 -0.08079,-0.124817 0.0028,-0.0102 0.0019,-0.01344 -0.0046,-0.0156 -0.02672,-0.009 -0.06658,-0.03028 -0.08203,-0.04387 -0.03167,-0.02765 -0.04279,-0.07075 -0.02858,-0.110296 l 0.0059,-0.01591 -0.02348,-0.01174 c -0.01298,-0.0063 -0.03321,-0.02132 -0.04511,-0.03321 -0.03924,-0.03908 -0.05654,-0.08805 -0.05685,-0.160501 -1.54e-4,-0.02348 -4.63e-4,-0.04279 -0.0011,-0.04279 -3.09e-4,0 -0.007,0.01128 -0.01468,0.02487 -0.0448,0.0794 -0.152004,0.164054 -0.234804,0.18568 -0.09516,0.02472 -0.15324,-0.01205 -0.158493,-0.1001 -0.0026,-0.04542 0.0091,-0.08774 0.05685,-0.205145 0.01915,-0.04696 0.03939,-0.103808 0.0448,-0.126207 0.0099,-0.04047 0.0105,-0.05685 0.0073,-0.184136 -9.27e-4,-0.02765 0.0012,-0.03677 0.01344,-0.06256 0.0077,-0.01653 0.02734,-0.04773 0.04356,-0.06936 0.07585,-0.101954 0.09485,-0.146443 0.104117,-0.243918 l 0.0032,-0.03321 -0.03414,0.01081 c -0.08913,0.02827 -0.191242,0.03599 -0.253959,0.01915 -0.07631,-0.02039 -0.138875,-0.06704 -0.170388,-0.126671 -0.0086,-0.01637 -0.02348,-0.03538 -0.03414,-0.04403 -0.03275,-0.02611 -0.123736,-0.128678 -0.128061,-0.144126 -0.0022,-0.008 -0.03924,-0.06766 -0.08218,-0.132541 -0.0431,-0.06488 -0.109524,-0.165907 -0.14768,-0.224454 -0.136712,-0.209625 -0.218275,-0.322856 -0.345718,-0.479495 -0.261683,-0.321929 -0.477796,-0.528927 -0.811619,-0.77748 -0.100101,-0.07446 -0.412452,-0.295976 -0.417395,-0.295976 -0.004,0 0.0025,0.127906 0.0105,0.210551 0.02008,0.206226 0.06797,0.440721 0.135939,0.666566 0.06411,0.212559 0.135785,0.409517 0.300457,0.824749 0.197884,0.498959 0.259366,0.672745 0.350043,0.989885 0.101955,0.356068 0.146907,0.566002 0.226463,1.055537 0.04835,0.297213 0.05453,0.342166 0.0794,0.574498 0.0025,0.02224 0.0039,0.02456 0.02518,0.03831 0.03908,0.02533 0.08017,0.08836 0.103808,0.158802 0.0258,0.07724 0.03646,0.203754 0.02549,0.30231 -0.0034,0.03059 -0.0065,0.07029 -0.0068,0.08821 -4.63e-4,0.0309 -0.002,0.03507 -0.02642,0.07647 -0.08295,0.140574 -0.206226,0.25674 -0.380167,0.358386 -0.05144,0.02997 -0.15911,0.08234 -0.210551,0.102108 -0.01869,0.0073 -0.03491,0.0156 -0.03615,0.01838 -0.0011,0.0029 0.0087,0.04047 0.02163,0.08357 0.224918,0.746121 0.688501,1.617059 1.360319,2.554885 0.04186,0.05855 0.07971,0.111069 0.08404,0.11663 l 0.0077,0.0102 0.02642,-0.02224 c 0.08774,-0.07415 0.179192,-0.08017 0.274968,-0.01807 0.08604,0.05577 0.168688,0.141037 0.238357,0.245926 l 0.02981,0.0448 0.02487,-0.04974 c 0.102572,-0.204372 0.286399,-0.386809 0.462656,-0.458795 0.07446,-0.03028 0.117557,-0.03924 0.19186,-0.03939 0.149224,-4.64e-4 0.253341,0.04495 0.472235,0.206071 0.18568,0.136866 0.245154,0.169461 0.567082,0.311888 0.09037,0.04001 0.188307,0.08218 0.217503,0.09377 0.05468,0.02178 0.144899,0.05129 0.157721,0.05175 0.0039,1.54e-4 0.01437,-0.0071 0.02317,-0.01638 z m -4.775329,1.918752 c -0.162973,-0.01329 -0.267399,-0.05499 -0.362402,-0.144744 -0.144899,-0.137176 -0.2036,-0.340466 -0.153549,-0.532944 0.03538,-0.136094 0.127288,-0.253959 0.245154,-0.31436 0.02163,-0.01112 0.130069,-0.06241 0.240828,-0.113849 0.220902,-0.102727 0.436087,-0.20947 0.543912,-0.269715 0.19464,-0.108752 0.337994,-0.213178 0.417859,-0.304165 0.04047,-0.04619 0.0482,-0.0604 0.05855,-0.10597 0.0093,-0.04171 0.02085,-0.06504 0.0397,-0.08095 0.01514,-0.01267 0.05777,-0.02781 0.09408,-0.03321 0.01189,-0.0019 0.02163,-0.0048 0.02163,-0.0068 0,-0.0019 -0.02472,-0.03646 -0.05484,-0.07693 -0.513943,-0.688964 -1.182517,-1.97529 -1.447907,-2.785673 l -0.02255,-0.0689 -0.04171,0.0029 c -0.02286,0.0017 -0.104426,0.0053 -0.181201,0.0079 -0.298912,0.01035 -0.662086,-0.01344 -0.964396,-0.06318 -0.116476,-0.01915 -0.302465,-0.05669 -0.343556,-0.06936 -0.0062,-0.002 -0.01931,0.02085 -0.06735,0.116939 -0.354678,0.711055 -0.590409,1.742494 -0.690973,3.023721 -0.0051,0.06473 -0.0091,0.126207 -0.0091,0.136557 v 0.019 l 0.04094,4.63e-4 c 0.07013,7.73e-4 0.127907,0.02456 0.165445,0.06828 0.03213,0.03754 0.05793,0.106898 0.07214,0.195104 0.0077,0.04789 0.0076,0.199892 -1.54e-4,0.256894 -0.0275,0.20051 -0.09701,0.371516 -0.187998,0.461112 -0.0984,0.09701 -0.232642,0.127289 -0.469917,0.105971 -0.146753,-0.01328 -0.301847,-0.01699 -0.483975,-0.01174 -0.314823,0.0093 -0.513479,0.01097 -0.608482,0.0053 -0.263692,-0.01591 -0.413379,-0.04696 -0.638915,-0.132386 -0.242682,-0.09207 -0.461575,-0.205763 -0.684176,-0.355296 -0.244691,-0.164363 -0.341393,-0.256585 -0.40411,-0.385419 -0.06256,-0.128061 -0.06581,-0.284236 -0.0088,-0.426664 0.0275,-0.0689 0.06025,-0.117093 0.120491,-0.177339 0.105044,-0.104889 0.217349,-0.153549 0.356377,-0.154013 0.06951,-3.09e-4 0.07183,1.55e-4 0.273115,0.05469 0.513479,0.138874 0.742877,0.188152 0.960534,0.206226 0.113231,0.0094 0.264155,-0.0014 0.304782,-0.02194 0.008,-0.004 0.02642,-0.01653 0.04094,-0.02781 0.05808,-0.04495 0.08373,-0.04557 0.166217,-0.004 l 0.03043,0.01545 0.0057,-0.0933 c 0.03939,-0.659151 0.224145,-1.62123 0.470844,-2.452004 0.08234,-0.276822 0.192787,-0.588555 0.256586,-0.723413 0.0074,-0.0156 0.01205,-0.02981 0.01004,-0.03151 -0.0083,-0.0074 -0.173014,-0.05762 -0.26261,-0.08002 -0.166062,-0.0414 -0.258748,-0.05422 -0.418786,-0.05777 -0.119719,-0.0028 -0.127443,-0.0036 -0.128988,-0.01159 -9.26e-4,-0.0048 4.64e-4,-0.01313 0.0032,-0.01854 0.0028,-0.0054 0.0093,-0.03692 0.01483,-0.06998 0.03337,-0.204681 0.104272,-0.428363 0.236812,-0.747666 0.13424,-0.323164 0.24052,-0.52661 0.368581,-0.705339 l 0.04001,-0.05623 -0.02163,-0.06473 c -0.04356,-0.129915 -0.07832,-0.294277 -0.109987,-0.52074 -0.0465,-0.333823 -0.07523,-0.590718 -0.09377,-0.83788 -0.0094,-0.126053 -0.0079,-0.527691 0.0023,-0.648183 0.03754,-0.437477 0.11632,-0.8127 0.259674,-1.234575 l 0.01607,-0.04743 -0.03785,0.0309 c -0.150151,0.12219 -0.380012,0.219202 -0.63289,0.267089 -0.235267,0.04449 -0.455705,0.04511 -0.793699,0.0026 -0.287172,-0.03615 -0.62424,-0.105816 -0.971657,-0.200819 l -0.09222,-0.02518 -0.03244,0.02286 c -0.08388,0.05886 -0.16529,0.05345 -0.254114,-0.01699 -0.04573,-0.03615 -0.08774,-0.101646 -0.116012,-0.180429 -0.01437,-0.04016 -0.03429,-0.127906 -0.03862,-0.170233 -0.0037,-0.03754 -0.0076,-0.04016 -0.05746,-0.04016 -0.0309,0 -0.03337,9.27e-4 -0.0672,0.02363 -0.10628,0.07137 -0.24052,0.106589 -0.482585,0.126671 -0.07538,0.0063 -0.08852,0.0086 -0.11802,0.02132 -0.04418,0.01869 -0.112459,0.03877 -0.176103,0.05159 -0.06967,0.01406 -0.232332,0.01529 -0.296286,0.0022 -0.08805,-0.01792 -0.174867,-0.05484 -0.234495,-0.09995 -0.05654,-0.04279 -0.123272,-0.118483 -0.142891,-0.1622 -0.008,-0.01792 -0.01205,-0.02101 -0.04526,-0.03476 -0.128216,-0.05299 -0.232333,-0.164054 -0.273114,-0.291188 -0.0079,-0.02503 -0.01081,-0.02858 -0.03738,-0.04557 -0.05947,-0.03769 -0.114003,-0.110759 -0.139492,-0.186607 -0.01468,-0.04372 -0.02842,-0.120492 -0.02842,-0.157875 0,-0.03723 0.01406,-0.110914 0.02811,-0.146289 0.02518,-0.0638 0.0811,-0.124972 0.141501,-0.15494 0.03352,-0.01653 0.03846,-0.01761 0.0777,-0.01761 0.03429,0 0.04542,0.0019 0.06102,0.0102 0.02719,0.01452 0.05947,0.05252 0.07199,0.08481 0.01035,0.02657 0.01128,0.02765 0.02734,0.02765 0.06364,0 0.114003,0.04495 0.136093,0.121418 0.0042,0.01468 0.0094,0.02672 0.01143,0.02672 0.002,0 0.02116,-0.0082 0.04248,-0.01823 0.141655,-0.06643 0.356377,-0.119719 0.673053,-0.166989 0.219666,-0.03275 0.327181,-0.06488 0.400249,-0.119873 0.02549,-0.01915 0.05113,-0.04789 0.06287,-0.0706 0.006,-0.01159 0.0045,-0.01638 -0.02533,-0.07878 -0.09238,-0.193713 -0.118638,-0.282074 -0.11802,-0.397313 3.09e-4,-0.05947 0.0017,-0.07137 0.01251,-0.104117 0.02147,-0.06503 0.05685,-0.109061 0.106743,-0.132387 0.06612,-0.03089 0.139647,-0.03028 0.172859,0.0015 0.02842,0.02703 0.03553,0.05422 0.04758,0.181819 0.0088,0.09191 0.03275,0.16946 0.07368,0.23743 0.0122,0.02039 0.04882,0.07291 0.08141,0.116784 0.128524,0.173323 0.16807,0.251179 0.192941,0.379858 0.0056,0.02904 0.01066,0.0536 0.01143,0.05438 4.63e-4,0.0011 0.0082,-0.0037 0.01668,-0.01019 0.05237,-0.04001 0.118638,-0.04882 0.174713,-0.02348 0.04959,0.0224 0.108906,0.07662 0.142582,0.130379 l 0.01267,0.02008 0.03012,-0.0036 c 0.04711,-0.0057 0.119565,-0.0034 0.15494,0.0051 0.01792,0.0043 0.06689,0.02255 0.108905,0.04063 0.143818,0.06194 0.164518,0.06673 0.326873,0.07554 0.128833,0.007 0.187379,0.01591 0.248089,0.03769 0.03491,0.01251 0.102726,0.04557 0.125435,0.06086 l 0.01298,0.009 0.0309,-0.01128 c 0.02085,-0.0076 0.0448,-0.0122 0.07276,-0.01359 0.0397,-0.0022 0.06256,0.0015 0.115703,0.019 0.0074,0.0023 0.01112,-4.63e-4 0.01838,-0.0139 0.01468,-0.0275 0.0638,-0.0689 0.105662,-0.08929 0.04681,-0.02271 0.08929,-0.03615 0.20638,-0.06519 0.153086,-0.038 0.25087,-0.06812 0.354832,-0.10937 0.08002,-0.03151 0.141192,-0.06055 0.344637,-0.162972 0.267553,-0.134704 0.396078,-0.191551 0.551018,-0.243764 0.17842,-0.06009 0.36858,-0.09531 0.515333,-0.09531 h 0.05021 l 0.03244,-0.02966 c 0.05716,-0.05221 0.117247,-0.07369 0.158184,-0.05654 0.02595,0.01081 0.03074,0.0097 0.03074,-0.0068 v -0.01421 l -0.01745,0.0026 c -0.0777,0.0122 -0.178112,0.01807 -0.313587,0.01823 -0.179811,1.54e-4 -0.304473,-0.01128 -0.449063,-0.04155 -0.262919,-0.05515 -0.496951,-0.175949 -0.739788,-0.382021 -0.07322,-0.06225 -0.06148,-0.05654 -0.09346,-0.04495 -0.02055,0.0076 -0.03847,0.01019 -0.06936,0.01035 -0.05144,3.09e-4 -0.08172,-0.01128 -0.108288,-0.04155 -0.03368,-0.03831 -0.03599,-0.08095 -0.0077,-0.138411 0.01962,-0.0397 0.04495,-0.07152 0.140574,-0.177185 0.04094,-0.04511 0.08249,-0.09238 0.09253,-0.105198 0.04557,-0.05824 0.117711,-0.166217 0.160347,-0.240211 l 0.01313,-0.02286 -0.02719,0.02101 c -0.111068,0.08527 -0.25674,0.1432 -0.433615,0.172396 -0.09948,0.01637 -0.169924,0.02194 -0.209316,0.01637 -0.07616,-0.01066 -0.144281,-0.06565 -0.185062,-0.149224 -0.01159,-0.02379 -0.02101,-0.04572 -0.02101,-0.04881 0,-0.0039 -0.01328,-0.0056 -0.0465,-0.0056 -0.02549,0 -0.06658,-0.0022 -0.09129,-0.0048 -0.135167,-0.01452 -0.214104,-0.05607 -0.251797,-0.132695 -0.01359,-0.0275 -0.01545,-0.03568 -0.01545,-0.06843 0,-0.04418 0.0083,-0.06442 0.03846,-0.09377 l 0.02024,-0.01962 -0.02147,-0.03275 c -0.06905,-0.104735 -0.117094,-0.24778 -0.139493,-0.413997 -0.0099,-0.07384 -0.01128,-0.254886 -0.0023,-0.324091 0.0062,-0.04897 0.01777,-0.120029 0.02147,-0.132232 0.0017,-0.0054 -0.0045,-0.0093 -0.02441,-0.01545 -0.08604,-0.02672 -0.151232,-0.107361 -0.182128,-0.224918 -0.01437,-0.05484 -0.01761,-0.155094 -0.007,-0.208079 0.01468,-0.0726 0.04696,-0.139956 0.08836,-0.184754 0.04372,-0.04727 0.09361,-0.06534 0.154939,-0.05623 0.02255,0.0034 0.04758,0.01328 0.09964,0.03924 0.0862,0.04294 0.102726,0.04881 0.138256,0.04866 0.05098,0 0.09825,-0.02997 0.150769,-0.09531 0.07616,-0.09454 0.118483,-0.206999 0.158029,-0.418477 0.02487,-0.133313 0.0499,-0.259211 0.05515,-0.27744 0.0039,-0.0139 0.0025,-0.01699 -0.02163,-0.04542 -0.09856,-0.116166 -0.163127,-0.272496 -0.193559,-0.468681 -0.01051,-0.06751 -0.01437,-0.245463 -0.0073,-0.329344 0.02812,-0.32888 0.127134,-0.597669 0.279139,-0.756625 0.04202,-0.04403 0.103191,-0.09377 0.131923,-0.107516 0.0083,-0.004 0.01514,-0.0085 0.01514,-0.01019 0,-0.0017 -0.0083,-0.0056 -0.01854,-0.0087 -0.144899,-0.04341 -0.280066,-0.184136 -0.326872,-0.340775 -0.01066,-0.03584 -0.01251,-0.05051 -0.01298,-0.104117 -4.64e-4,-0.07338 0.0053,-0.09902 0.03738,-0.168997 0.02472,-0.05376 0.02951,-0.05994 0.04217,-0.05592 0.01313,0.0042 0.01529,0.01298 0.01019,0.04032 -0.01792,0.09423 0.05777,0.191087 0.207308,0.265545 0.111995,0.05561 0.235576,0.08527 0.356377,0.08558 l 0.04742,1.54e-4 0.06364,-0.04449 c 0.235577,-0.164209 0.501894,-0.309725 0.747512,-0.408436 0.348807,-0.140264 0.628255,-0.199583 1.098327,-0.233105 0.101336,-0.0073 0.411062,-0.0073 0.495406,1.55e-4 0.308953,0.02672 0.532325,0.07878 0.752145,0.175331 0.06998,0.03059 0.162355,0.07986 0.165445,0.0879 0.0012,0.0032 0.008,0.006 0.01514,0.006 0.01097,0 0.01607,-0.0049 0.03414,-0.03414 0.04124,-0.06612 0.110914,-0.120337 0.187225,-0.145517 0.03059,-0.01004 0.04403,-0.01174 0.09577,-0.0119 0.05299,0 0.06457,0.0014 0.09717,0.0122 0.08357,0.02796 0.15185,0.08589 0.189388,0.160964 0.01174,0.02333 0.02147,0.04588 0.02163,0.05005 0.0011,0.02055 0.009,-0.02549 0.01375,-0.08048 0.01128,-0.130533 -0.0156,-0.268017 -0.07307,-0.372443 -0.07214,-0.131614 -0.198966,-0.239284 -0.3865,-0.328571 -0.06581,-0.0312 -0.107979,-0.04681 -0.17255,-0.06395 -0.04124,-0.01097 -0.05468,-0.01236 -0.122654,-0.0122 -0.0709,0 -0.07925,9.27e-4 -0.114468,0.01267 -0.100409,0.03352 -0.173013,0.115085 -0.200973,0.225999 -0.0082,0.03182 -0.0094,0.04758 -0.0076,0.09083 0.0015,0.03398 6.18e-4,0.05329 -0.0025,0.0553 -0.0079,0.0048 -0.03507,-0.03059 -0.05391,-0.07044 -0.02085,-0.04403 -0.03831,-0.09577 -0.05144,-0.152622 -0.01251,-0.05391 -0.0173,-0.176721 -0.0091,-0.228317 0.01993,-0.124199 0.08094,-0.225999 0.17981,-0.300147 0.01962,-0.01468 0.03738,-0.02811 0.0397,-0.02997 0.0042,-0.0036 -0.0039,-0.0029 -0.07817,0.0056 -0.144899,0.01653 -0.304782,0.06272 -0.421875,0.121418 -0.09886,0.04974 -0.199121,0.130687 -0.256277,0.207462 -0.02688,0.03599 -0.06828,0.11215 -0.07878,0.144744 -0.01081,0.03399 -0.01591,0.0076 -0.01576,-0.0828 1.54e-4,-0.161428 0.03599,-0.295205 0.114621,-0.427745 0.15185,-0.255659 0.466519,-0.441648 0.852555,-0.503748 0.07276,-0.01174 0.266627,-0.01174 0.335987,0 0.188615,0.03182 0.355604,0.107207 0.506528,0.22878 0.04804,0.03877 0.131614,0.122345 0.159574,0.159883 0.009,0.01189 0.01776,0.02178 0.01962,0.02193 0.0054,0 0.03862,-0.0465 0.05175,-0.07276 0.02039,-0.04094 0.02719,-0.07971 0.02472,-0.142427 -0.002,-0.04742 -0.0046,-0.06225 -0.01807,-0.102109 -0.03367,-0.09933 -0.09964,-0.195104 -0.212405,-0.308798 -0.03985,-0.04032 -0.07075,-0.07415 -0.06859,-0.07554 0.0022,-0.0014 0.0059,-0.0014 0.0082,1.54e-4 0.0023,0.0014 0.02781,0.0066 0.05669,0.01159 0.103654,0.01792 0.224609,0.05731 0.314823,0.102418 0.220438,0.11045 0.375223,0.277439 0.465128,0.501739 0.01328,0.03321 0.02518,0.05716 0.02642,0.05329 0.07214,-0.23743 0.276358,-0.400711 0.570172,-0.455705 0.127134,-0.02379 0.281611,-0.03043 0.299221,-0.01298 0.0087,0.0087 -0.0037,0.0224 -0.06195,0.06905 -0.143663,0.11493 -0.207462,0.18738 -0.256122,0.290416 -0.03383,0.07183 -0.04124,0.10767 -0.0414,0.2019 0,0.04449 0.0017,0.08682 0.0036,0.09392 l 0.0037,0.01282 0.02642,-0.02024 c 0.169615,-0.130378 0.434388,-0.199429 0.688502,-0.179347 0.41307,0.03244 0.844213,0.24052 1.321082,0.637524 0.01746,0.01452 0.0088,0.01823 -0.01668,0.0074 -0.0122,-0.0053 -0.06071,-0.02611 -0.107824,-0.0465 -0.260138,-0.112458 -0.465746,-0.16498 -0.669037,-0.17085 -0.164518,-0.0048 -0.281765,0.01776 -0.402102,0.0777 -0.04279,0.02116 -0.128216,0.07739 -0.131151,0.0862 -6.18e-4,0.002 0.02085,0.0094 0.04773,0.01638 0.102727,0.02688 0.248553,0.0862 0.350816,0.142581 0.367963,0.202828 0.576815,0.495097 0.623776,0.872329 0.0083,0.06642 0.0071,0.227389 -0.0023,0.303237 -0.0139,0.113385 -0.04217,0.24191 -0.07847,0.355759 l -0.01529,0.04789 -0.0054,-0.07801 c -0.01359,-0.196648 -0.06642,-0.37028 -0.158956,-0.523521 -0.109679,-0.181664 -0.281302,-0.325481 -0.494788,-0.414614 -0.05731,-0.02394 -0.07399,-0.02873 -0.07399,-0.02116 0,0.0029 0.01962,0.03167 0.04356,0.0638 0.103499,0.138566 0.158647,0.25674 0.190469,0.407818 0.01638,0.07817 0.02085,0.22708 0.0094,0.314823 -0.02935,0.223527 -0.120028,0.448599 -0.278521,0.690818 -0.02132,0.03244 -0.03955,0.05901 -0.04063,0.05901 -0.0012,0 0.0051,-0.01807 0.01375,-0.04032 0.03151,-0.08002 0.05793,-0.188925 0.0672,-0.276049 0.0076,-0.0723 0.0028,-0.206072 -0.0096,-0.263537 -0.02224,-0.103654 -0.06256,-0.196957 -0.11941,-0.276204 -0.05129,-0.07137 -0.134086,-0.149996 -0.211324,-0.200047 -0.04897,-0.03182 -0.05206,-0.02595 -0.03321,0.06164 0.02364,0.109833 0.02595,0.19634 0.0074,0.281611 -0.0173,0.0794 -0.05484,0.162509 -0.105199,0.232332 -0.02472,0.03445 -0.107361,0.126208 -0.110605,0.122964 -9.27e-4,-9.27e-4 0.0036,-0.01437 0.0099,-0.02981 0.02811,-0.06967 0.03275,-0.167144 0.01159,-0.242065 -0.04789,-0.169152 -0.206844,-0.319921 -0.473161,-0.448908 -0.08388,-0.04063 -0.149996,-0.06411 -0.222137,-0.07925 -0.08295,-0.0173 -0.206998,-0.01251 -0.267244,0.01035 l -0.01112,0.0042 0.02255,0.01437 c 0.06951,0.04387 0.124045,0.120183 0.143663,0.20082 0.01004,0.04124 0.01035,0.120182 7.73e-4,0.155403 l -0.007,0.02595 0.0536,0.04573 c 0.07168,0.06148 0.216113,0.203136 0.282538,0.277285 0.02966,0.03321 0.09238,0.106743 0.139337,0.163745 0.23017,0.278212 0.317295,0.411062 0.420485,0.641695 0.02286,0.05098 0.05855,0.129142 0.0794,0.173632 0.142736,0.305245 0.196958,0.508381 0.270643,1.013828 0.01437,0.09794 0.03028,0.203137 0.03538,0.233723 0.03012,0.177648 0.08048,0.377231 0.117711,0.466364 0.01715,0.04078 0.06519,0.124045 0.09145,0.158648 0.02085,0.02719 0.07399,0.08094 0.08017,0.08094 0.0029,0 0.0077,0.0029 0.01066,0.0065 0.0224,0.02703 -0.09485,0.04016 -0.166217,0.01885 -0.03012,-0.0091 -0.08419,-0.03553 -0.104889,-0.05113 -0.01854,-0.01406 -0.02085,-0.01406 -0.0156,0 0.0025,0.0062 0.0068,0.03352 0.0099,0.06086 0.01483,0.132387 -0.02873,0.303547 -0.122036,0.478877 -0.03368,0.06318 -0.03955,0.07168 -0.04974,0.07168 h -0.01159 l 0.0015,-0.03244 c 7.72e-4,-0.01776 0.0034,-0.05005 0.0057,-0.07168 0.0077,-0.07075 0.0053,-0.07662 -0.01019,-0.0258 -0.08295,0.274504 -0.289643,0.588864 -0.575579,0.875417 -0.209007,0.209471 -0.406428,0.352052 -0.669964,0.483975 -0.38063,0.190624 -0.809148,0.303083 -1.302082,0.341856 -0.173477,0.01375 -0.461267,0.01761 -0.470535,0.0065 -0.0063,-0.0076 0.01313,-0.02132 0.09083,-0.06442 0.03568,-0.01977 0.07631,-0.04387 0.09037,-0.0536 0.02935,-0.02039 0.05453,-0.04094 0.05005,-0.04094 -0.0017,0 -0.0309,0.0102 -0.06519,0.02271 -0.269561,0.09856 -0.51348,0.157257 -0.65498,0.157721 h -0.02889 v 0.04171 c 0,0.02286 0.0015,0.04155 0.0034,0.0414 0.01359,-0.0011 0.06581,-0.01761 0.07523,-0.02394 0.007,-0.0046 0.02904,-0.0094 0.05577,-0.0122 0.125899,-0.01282 0.229089,0.03136 0.273424,0.117094 l 0.01514,0.02904 0.05113,0.0029 c 0.153395,0.0087 0.340157,0.07338 0.530472,0.183827 0.173631,0.100719 0.331352,0.215649 0.682631,0.497569 0.114622,0.09191 0.292733,0.233413 0.395923,0.314514 0.351434,0.276358 0.629801,0.506528 0.870166,0.719705 0.576351,0.511008 0.74195,0.677843 0.91311,0.920525 l 0.03707,0.05237 0.03754,0.01761 c 0.04542,0.02101 0.07925,0.04727 0.107052,0.08264 0.07276,0.09269 0.0933,0.214568 0.05607,0.33197 l -0.01066,0.03368 0.02827,0.01854 c 0.03955,0.02595 0.105353,0.05824 0.172242,0.0845 l 0.057,0.02224 0.03151,-0.01066 c 0.07276,-0.02456 0.183054,-0.02781 0.248861,-0.0071 0.03785,0.01189 0.101646,0.04449 0.128524,0.06581 0.01035,0.0082 0.02935,0.01854 0.04233,0.02286 l 0.02363,0.0082 0.05329,-0.05221 c 0.303392,-0.297058 0.563994,-0.51487 1.219746,-1.019699 0.513943,-0.395769 0.705957,-0.537887 0.880824,-0.652045 0.02333,-0.01529 0.04248,-0.0292 0.04264,-0.03089 0,-0.0019 -0.01452,-0.02564 -0.03244,-0.05314 -0.06967,-0.107052 -0.08759,-0.203137 -0.05144,-0.276667 0.04155,-0.08419 0.159574,-0.116785 0.278521,-0.07662 l 0.02765,0.0093 0.04511,-0.01668 c 0.108133,-0.04016 0.247625,-0.118946 0.41307,-0.233413 0.271415,-0.187689 0.342474,-0.232951 0.530471,-0.337068 0.279603,-0.154785 0.489691,-0.237894 0.686803,-0.271724 0.03816,-0.0065 0.04603,-0.0096 0.06164,-0.02364 0.03769,-0.03414 0.118947,-0.07739 0.15633,-0.08326 l 0.01838,-0.0029 v -0.04279 -0.04264 l -0.126208,-0.0028 c -0.475169,-0.01097 -0.89241,-0.07492 -1.216192,-0.186144 -0.132541,-0.04557 -0.282074,-0.112768 -0.396078,-0.177802 -0.166989,-0.09547 -0.33058,-0.221365 -0.456632,-0.351434 -0.273424,-0.282074 -0.41168,-0.613735 -0.448291,-1.074692 -0.01035,-0.129761 -0.0039,-0.440722 0.0122,-0.588555 l 0.0029,-0.02611 -0.02719,-0.0079 c -0.0482,-0.01406 -0.08913,-0.03893 -0.129451,-0.07878 -0.08048,-0.07971 -0.127907,-0.180274 -0.134704,-0.285473 -0.0082,-0.130223 0.05206,-0.216421 0.176876,-0.253032 0.01777,-0.0053 0.06828,-0.01591 0.11215,-0.02379 0.15185,-0.02688 0.197112,-0.05299 0.241446,-0.139029 0.05144,-0.09964 0.07199,-0.198502 0.09068,-0.437477 0.0063,-0.08141 0.01282,-0.153704 0.01421,-0.160347 0.0019,-0.0091 -0.004,-0.02564 -0.02255,-0.06256 -0.168688,-0.336913 -0.129142,-0.788447 0.09933,-1.133393 l 0.02765,-0.04171 -0.133313,0.132232 c -0.144745,0.143354 -0.236504,0.224609 -0.263383,0.23295 -0.0156,0.0048 -0.03228,-0.0122 -0.04372,-0.04464 -0.01298,-0.03661 -0.01761,-0.12389 -0.0093,-0.172087 0.0097,-0.05561 0.03615,-0.129451 0.07106,-0.198348 0.09068,-0.179192 0.243301,-0.359775 0.411989,-0.487682 0.02595,-0.01962 0.04912,-0.03754 0.05175,-0.03985 0.0025,-0.0025 -0.0156,0.0056 -0.04032,0.01777 l -0.0448,0.02225 -0.0099,-0.0088 c -0.0065,-0.0059 -0.0088,-0.01205 -0.007,-0.01838 0.0015,-0.0051 0.0034,-0.01359 0.0042,-0.01885 0.0014,-0.0099 0.03306,-0.05561 0.07662,-0.110914 0.15803,-0.200202 0.340621,-0.358849 0.548855,-0.477023 0.185372,-0.105199 0.436241,-0.193559 0.682786,-0.240675 l 0.0672,-0.01267 0.03816,-0.03615 c 0.191242,-0.180429 0.47656,-0.30092 0.81579,-0.344174 0.293506,-0.03738 0.646484,-0.0054 0.973665,0.08805 0.183982,0.05252 0.435933,0.155094 0.553953,0.225535 l 0.04403,0.02626 -0.03986,-0.03815 c -0.02193,-0.02101 -0.0692,-0.06102 -0.105198,-0.08898 -0.0689,-0.05376 -0.07677,-0.06411 -0.06488,-0.08542 0.0059,-0.01051 0.0099,-0.01205 0.03646,-0.01329 0.07276,-0.0036 0.194023,0.02997 0.299994,0.08265 0.180274,0.08975 0.3244,0.222446 0.41137,0.378621 0.01375,0.02456 0.02394,0.03955 0.02271,0.03321 -0.0014,-0.0063 -0.0057,-0.03553 -0.0097,-0.06488 -0.004,-0.0292 -0.01591,-0.09485 -0.02642,-0.145826 -0.02363,-0.113849 -0.02441,-0.126516 -0.0073,-0.136248 0.01035,-0.0059 0.01514,-0.006 0.02734,-0.0015 0.0312,0.01174 0.06735,0.03738 0.105971,0.07523 0.07925,0.07755 0.137947,0.181664 0.169615,0.30092 0.0091,0.0346 0.0122,0.05963 0.01421,0.116939 0.0014,0.04001 0.0031,0.07291 0.0037,0.07291 6.18e-4,0 0.0156,-0.0065 0.03306,-0.01421 0.04372,-0.01977 0.124044,-0.04325 0.182128,-0.0536 0.06581,-0.01159 0.214413,-0.01174 0.276512,-1.55e-4 0.110296,0.02055 0.222292,0.0672 0.276822,0.115085 0.01838,0.01607 0.02178,0.03877 0.0079,0.05144 -0.0049,0.0043 -0.04171,0.01421 -0.08913,0.02379 -0.04449,0.009 -0.108751,0.02317 -0.142736,0.03151 l -0.06179,0.01514 0.09886,1.54e-4 c 0.107515,0 0.153704,0.0056 0.254268,0.03012 0.07059,0.0173 0.131459,0.04001 0.199583,0.07461 0.136248,0.06921 0.238975,0.170851 0.288871,0.286245 0.02271,0.05221 0.0241,0.06426 0.0093,0.07817 l -0.0119,0.01112 -0.08218,-0.0029 c -0.04526,-0.0015 -0.09176,-0.004 -0.103191,-0.0056 -0.01467,-0.0019 -0.0045,0.0031 0.03476,0.01653 0.442574,0.152777 0.756162,0.551636 0.944468,1.201672 0.06751,0.233414 0.124663,0.523984 0.14768,0.751682 0.01854,0.181819 0.02101,0.467755 0.0051,0.567083 -0.02132,0.13285 -0.06195,0.249016 -0.103036,0.294432 -0.04341,0.04804 -0.09392,0.04881 -0.133931,0.002 l -0.01869,-0.02178 -0.0031,0.114931 c -0.0017,0.06318 -0.0053,0.153549 -0.0079,0.200665 -0.02132,0.389744 -0.09516,0.627328 -0.240211,0.773463 -0.04835,0.04866 -0.05994,0.05654 -0.07662,0.05237 -0.0099,-0.0025 -0.01545,-0.0096 -0.02626,-0.03383 -0.01498,-0.03306 -0.05283,-0.145053 -0.06658,-0.197112 l -0.0085,-0.03213 -0.01004,0.05994 c -0.01668,0.100873 -0.06287,0.256585 -0.116476,0.393297 -0.05994,0.152468 -0.126361,0.223064 -0.214876,0.228316 l -0.03059,0.0019 -0.01885,-0.01699 c -0.03491,-0.03151 -0.05005,-0.09886 -0.04603,-0.204527 l 0.0023,-0.06194 -0.0241,0.04773 c -0.101491,0.200819 -0.290261,0.414615 -0.544993,0.617597 -0.219511,0.174867 -0.410598,0.247471 -0.571099,0.21673 -0.01962,-0.0039 -0.0397,-0.01035 -0.04434,-0.01468 -0.01189,-0.01081 -0.01066,-0.03105 0.0034,-0.05515 0.0066,-0.01128 0.01066,-0.02055 0.0091,-0.02055 -0.0017,0 -0.01498,0.008 -0.02935,0.01776 -0.201128,0.135785 -0.555033,0.279139 -0.822586,0.333515 -0.133005,0.02688 -0.16977,0.03059 -0.300921,0.02981 -0.09578,-4.64e-4 -0.12976,-0.0023 -0.16668,-0.0093 l -0.04634,-0.0087 -0.06009,0.01499 c -0.03321,0.0082 -0.08156,0.01946 -0.10767,0.02502 l -0.04742,0.01004 v 0.07106 c 0,0.03924 0.0015,0.07106 0.0034,0.07106 0.002,-1.54e-4 0.01607,-0.0032 0.03136,-0.007 0.01514,-0.0037 0.04557,-0.0066 0.06735,-0.0068 0.06472,0 0.105662,0.01637 0.141346,0.05669 l 0.01807,0.02055 0.05098,0.0028 c 0.05886,0.0031 0.102418,0.01174 0.161427,0.03151 0.122346,0.04094 0.277131,0.141809 0.44721,0.291651 0.230479,0.202982 0.375068,0.340621 0.619759,0.589791 0.148297,0.151078 0.205763,0.213023 0.258748,0.27883 0.0326,0.04047 0.03553,0.04279 0.05206,0.04279 0.02889,0 0.120337,0.01746 0.156175,0.02966 0.09979,0.03429 0.159574,0.09284 0.176567,0.173168 0.01112,0.05329 0.002,0.133931 -0.02333,0.204527 -0.02194,0.06164 -0.02225,0.05716 0.006,0.08697 0.104272,0.110451 0.26122,0.330425 0.424965,0.59597 0.102418,0.165908 0.158956,0.25396 0.324709,0.505138 0.260448,0.394842 0.351743,0.543294 0.465438,0.755853 l 0.03831,0.07168 0.09856,3.09e-4 c 0.0913,3.09e-4 0.102572,0.0012 0.154013,0.01344 0.257976,0.06086 0.489072,0.241292 0.615588,0.48073 0.06952,0.131614 0.105662,0.269562 0.105971,0.403956 1.55e-4,0.07569 -0.0063,0.120801 -0.02981,0.209625 -0.03337,0.126361 -0.08913,0.211787 -0.164981,0.25226 -0.02734,0.01467 -0.02935,0.01699 -0.04974,0.05747 -0.05067,0.101336 -0.10906,0.151232 -0.167452,0.143199 -0.01807,-0.0025 -0.01946,-0.0019 -0.02224,0.01004 -0.0017,0.007 -0.0122,0.03151 -0.02348,0.05484 -0.02626,0.05438 -0.06133,0.09099 -0.10937,0.114467 -0.04789,0.02348 -0.08913,0.02981 -0.135939,0.0207 l -0.03599,-0.007 -0.0025,0.0096 c -0.0066,0.02518 -0.04001,0.08218 -0.06334,0.107979 -0.08404,0.09299 -0.22121,0.08017 -0.331197,-0.03059 -0.05685,-0.05731 -0.09686,-0.126053 -0.118175,-0.202827 l -0.0079,-0.02811 -0.04912,-0.0022 c -0.03692,-0.0019 -0.05685,-0.0053 -0.08033,-0.0139 -0.117248,-0.04356 -0.199584,-0.148297 -0.231869,-0.295204 -0.01328,-0.0604 -0.01421,-0.247317 -0.0017,-0.328726 0.01205,-0.07677 0.04356,-0.230633 0.05685,-0.27713 0.01189,-0.04156 0.03677,-0.0984 0.05268,-0.120801 0.0051,-0.0073 0.0093,-0.0156 0.0093,-0.01869 0,-0.0073 -0.136094,-0.238357 -0.239748,-0.407354 -0.186453,-0.303392 -0.354214,-0.55318 -0.513788,-0.764658 -0.148298,-0.196494 -0.356223,-0.461576 -0.440412,-0.561522 -0.03877,-0.04588 -0.153087,-0.173631 -0.155404,-0.173631 -4.63e-4,0 -0.0207,0.0093 -0.04449,0.0207 -0.0502,0.02363 -0.112304,0.0448 -0.164517,0.05592 -0.0448,0.0096 -0.158184,0.01406 -0.186762,0.0074 -0.01143,-0.0026 -0.02225,-0.0034 -0.02394,-0.0015 -0.0017,0.0017 -0.0056,0.04897 -0.0085,0.105044 -0.01205,0.228316 0.01715,0.471307 0.08512,0.708274 0.0292,0.101337 0.05577,0.178112 0.10937,0.314823 0.112458,0.287326 0.142427,0.399167 0.146752,0.548546 0.0029,0.100564 -0.0028,0.138256 -0.02935,0.194022 -0.03275,0.06843 -0.109215,0.127907 -0.194486,0.151233 l -0.02858,0.0077 0.0068,0.019 c 0.01313,0.03723 0.02935,0.131151 0.03476,0.200819 0.0059,0.07569 0.0015,0.164981 -0.01251,0.258131 -0.01498,0.09979 -0.05916,0.276049 -0.111532,0.444892 l -0.02595,0.08373 0.02302,0.03429 c 0.04264,0.06333 0.07508,0.122963 0.160501,0.294123 0.115085,0.231096 0.215031,0.413687 0.310652,0.568473 0.01653,0.02672 0.03012,0.05376 0.03012,0.06009 0,0.02271 -0.09608,0.121728 -0.175948,0.18151 -0.06534,0.04897 -0.304165,0.205763 -0.407355,0.267553 -0.137793,0.08249 -0.299221,0.158956 -0.460648,0.218121 -0.03306,0.0122 -0.06056,0.0224 -0.06102,0.02255 -4.63e-4,1.55e-4 0.006,0.02132 0.01452,0.04665 0.02703,0.08095 0.173168,0.34819 0.312815,0.571563 0.116784,0.186916 0.262764,0.39824 0.383565,0.555497 0.353133,0.459258 0.585929,0.722332 0.808066,0.912647 l 0.07369,0.06333 0.02024,-0.02255 c 0.0312,-0.03476 0.05793,-0.04341 0.133158,-0.0431 0.124663,6.17e-4 0.20669,0.04001 0.318067,0.152931 0.117402,0.118793 0.20221,0.254886 0.3261,0.52383 0.02456,0.05345 0.04325,0.1001 0.04325,0.108133 0,0.03167 -0.0258,0.137175 -0.08033,0.327799 -0.07461,0.260911 -0.09253,0.313278 -0.149843,0.437477 -0.133313,0.289489 -0.333823,0.518423 -0.563684,0.643858 -0.175176,0.09562 -0.401021,0.156021 -0.685103,0.183364 -0.08836,0.0083 -0.35545,0.007 -0.453697,-0.0026 -0.04325,-0.0042 -0.141192,-0.0097 -0.217503,-0.01236 -0.267244,-0.0093 -0.394533,-0.02765 -0.513943,-0.0743 -0.114003,-0.04449 -0.195413,-0.113077 -0.238666,-0.200974 -0.02842,-0.05808 -0.03445,-0.08666 -0.03399,-0.164363 3.09e-4,-0.05747 0.0022,-0.07384 0.01267,-0.113385 0.0139,-0.05175 0.04356,-0.116939 0.07322,-0.16081 0.06133,-0.09021 0.198039,-0.201128 0.338149,-0.274196 0.106589,-0.05577 0.192169,-0.0879 0.40411,-0.152314 0.07137,-0.02163 0.153704,-0.04897 0.1829,-0.06071 0.138257,-0.05561 0.221674,-0.124662 0.268635,-0.222291 0.0097,-0.02039 0.03368,-0.08388 0.05314,-0.141192 0.01946,-0.05731 0.04526,-0.124199 0.05747,-0.148915 l 0.02225,-0.04464 -0.03893,-0.0309 c -0.09099,-0.07229 -0.266626,-0.24639 -0.516414,-0.511626 -0.11354,-0.120491 -0.131923,-0.141964 -0.125589,-0.146598 0.0062,-0.0046 0.0022,-0.01081 -0.02951,-0.04403 -0.05762,-0.06055 -0.305709,-0.330888 -0.390362,-0.425119 -0.352979,-0.39376 -0.567701,-0.69916 -0.720478,-1.02526 -0.03491,-0.07461 -0.08203,-0.190469 -0.100719,-0.247625 -0.0071,-0.02163 -0.01421,-0.04078 -0.01576,-0.04248 -0.0015,-0.0017 -0.03306,-0.0065 -0.06998,-0.01066 -0.06874,-0.0076 -0.255041,-0.03553 -0.375069,-0.05607 -0.345718,-0.05932 -0.63289,-0.142428 -0.909403,-0.263074 l -0.06812,-0.02981 -0.04851,0.07415 c -0.144436,0.220438 -0.300611,0.49278 -0.429445,0.749211 -0.143199,0.2847 -0.232332,0.498959 -0.334441,0.803123 -0.05098,0.152004 -0.102727,0.323782 -0.102573,0.340311 0,0.0063 -0.01344,0.05947 -0.03012,0.11802 -0.06504,0.229707 -0.11802,0.441494 -0.243764,0.974437 l -0.07909,0.335523 0.01267,0.0093 c 0.03182,0.02333 0.04897,0.04263 0.06256,0.07044 l 0.01483,0.03012 -3.09e-4,0.05855 c -3.09e-4,0.06797 -0.0094,0.123736 -0.04341,0.266781 -0.04912,0.206844 -0.09871,0.367808 -0.137484,0.44551 -0.01483,0.02997 -0.02935,0.06086 -0.03213,0.0689 -0.0043,0.01282 -0.0082,0.01514 -0.03661,0.02224 -0.05762,0.01452 -0.128834,0.019 -0.198811,0.01267 -0.07986,-0.0071 -0.137021,-0.01807 -0.260293,-0.04959 -0.430989,-0.110296 -0.6712,-0.197575 -1.159346,-0.420484 -0.395614,-0.180892 -0.571562,-0.27157 -0.81579,-0.420794 -0.169615,-0.103808 -0.310806,-0.201592 -0.388199,-0.269098 l -0.03414,-0.02966 -0.0028,0.03646 c -0.0071,0.09269 -0.04511,0.172395 -0.120028,0.252569 -0.03893,0.04155 -0.08512,0.07925 -0.185217,0.150923 -0.15942,0.114158 -0.249479,0.187998 -0.476405,0.390826 -0.374606,0.335059 -0.569091,0.469762 -0.819961,0.568473 -0.334596,0.131459 -0.693599,0.20499 -1.107287,0.226617 -0.01777,0.0011 -0.0553,0 -0.08326,-0.0023 z"
         style="fill:#1a1a1a;fill-opacity:1;fill-rule:nonzero;stroke:none;stroke-width:0.154476"
         id="path270" />
    </g>
    <text
       xml:space="preserve"
       style="font-style:normal;font-variant:normal;font-weight:normal;font-stretch:normal;font-size:9.15713px;font-family:Cantarell;-inkscape-font-specification:'Cantarell, Normal';font-variant-ligatures:normal;font-variant-caps:normal;font-variant-numeric:normal;font-variant-east-asian:normal;text-align:center;text-anchor:middle;fill:#000000;stroke:none;stroke-width:0.763094"
       x="98.816971"
       y="30.394217"
       id="text4991"><tspan
         sodipodi:role="line"
         id="tspan4989"
         style="font-style:normal;font-variant:normal;font-weight:normal;font-stretch:normal;font-size:9.15713px;font-family:Cantarell;-inkscape-font-specification:'Cantarell, @wght=700';font-variant-ligatures:normal;font-variant-caps:normal;font-variant-numeric:normal;font-variant-east-asian:normal;font-variation-settings:'wght' 700;text-align:center;text-anchor:middle;stroke:none;stroke-width:0.763094"
         x="98.816971"
         y="30.394217">Sembrar y Crecer</tspan><tspan
         sodipodi:role="line"
         style="font-style:normal;font-variant:normal;font-weight:normal;font-stretch:normal;font-size:9.15713px;font-family:Cantarell;-inkscape-font-specification:'Cantarell, @wght=300';font-variant-ligatures:normal;font-variant-caps:normal;font-variant-numeric:normal;font-variant-east-asian:normal;font-variation-settings:'wght' 300;text-align:center;text-anchor:middle;stroke:none;stroke-width:0.763094"
         x="98.816971"
         y="41.840626"
         id="tspan6377">Colombia</tspan></text>
  </g>
</svg>
