<?xml version="1.0" encoding="UTF-8" standalone="no"?>
<!-- Created with Inkscape (http://www.inkscape.org/) -->

<svg
   width="136px"
   height="62px"
   viewBox="0 0 136 62"
   version="1.1"
   id="SVGRoot"
   sodipodi:docname="logo.svg"
   inkscape:version="1.1.2 (0a00cf5339, 2022-02-04)"
   inkscape:export-filename="/home/sergio/hugosite/static/images/logo.png"
   inkscape:export-xdpi="61.935482"
   inkscape:export-ydpi="61.935482"
   xmlns:inkscape="http://www.inkscape.org/namespaces/inkscape"
   xmlns:sodipodi="http://sodipodi.sourceforge.net/DTD/sodipodi-0.dtd"
   xmlns="http://www.w3.org/2000/svg"
   xmlns:svg="http://www.w3.org/2000/svg">
  <sodipodi:namedview
     id="namedview3924"
     pagecolor="#ffffff"
     bordercolor="#000000"
     borderopacity="0.25"
     inkscape:showpageshadow="2"
     inkscape:pageopacity="0.0"
     inkscape:pagecheckerboard="0"
     inkscape:deskcolor="#d1d1d1"
     inkscape:document-units="px"
     showgrid="false"
     inkscape:zoom="2.3661055"
     inkscape:cx="153.41666"
     inkscape:cy="17.750688"
     inkscape:window-width="1600"
     inkscape:window-height="870"
     inkscape:window-x="0"
     inkscape:window-y="30"
     inkscape:window-maximized="1"
     inkscape:current-layer="g193"
     inkscape:lockguides="false"
     inkscape:pageshadow="2" />
  <defs
     id="defs3919">
    <clipPath
       clipPathUnits="userSpaceOnUse"
       id="clipPath558">
      <path
         d="M 633.824,617.17 H 866.527 V 583.111 H 633.824 Z"
         id="path556" />
    </clipPath>
    <clipPath
       clipPathUnits="userSpaceOnUse"
       id="clipPath566">
      <path
         d="m 687.525,582.397 h 124.892 v -34.06 H 687.525 Z"
         id="path564" />
    </clipPath>
    <clipPath
       clipPathUnits="userSpaceOnUse"
       id="clipPath5685">
      <g
         id="g5695">
        <g
           id="g5693">
          <g
             id="g5691">
            <g
               id="g5689">
              <path
                 d="M 62.237617,25.265302 H 126.28207 V 44.2095 H 62.237617 Z"
                 id="path5687"
                 style="stroke-width:0.27522" />
            </g>
          </g>
        </g>
      </g>
    </clipPath>
    <clipPath
       clipPathUnits="userSpaceOnUse"
       id="clipPath5733">
      <g
         id="g5743">
        <g
           id="g5741">
          <g
             id="g5739">
            <g
               id="g5737">
              <path
                 d="M 62.237617,25.265302 H 126.28207 V 44.2095 H 62.237617 Z"
                 id="path5735"
                 style="stroke-width:0.27522" />
            </g>
          </g>
        </g>
      </g>
    </clipPath>
    <clipPath
       clipPathUnits="userSpaceOnUse"
       id="clipPath5788">
      <g
         id="g5800">
        <g
           id="g5798">
          <g
             id="g5796">
            <g
               id="g5794">
              <g
                 id="g5792">
                <path
                   d="M 62.237617,25.265302 H 126.28207 V 44.2095 H 62.237617 Z"
                   id="path5790"
                   style="stroke-width:0.27522" />
              </g>
            </g>
          </g>
        </g>
      </g>
    </clipPath>
    <clipPath
       clipPathUnits="userSpaceOnUse"
       id="clipPath5815">
      <g
         id="g5827">
        <g
           id="g5825">
          <g
             id="g5823">
            <g
               id="g5821">
              <g
                 id="g5819">
                <path
                   d="M 62.237617,25.265302 H 126.28207 V 44.2095 H 62.237617 Z"
                   id="path5817"
                   style="stroke-width:0.27522" />
              </g>
            </g>
          </g>
        </g>
      </g>
    </clipPath>
    <clipPath
       clipPathUnits="userSpaceOnUse"
       id="clipPath5842">
      <g
         id="g5854">
        <g
           id="g5852">
          <g
             id="g5850">
            <g
               id="g5848">
              <g
                 id="g5846">
                <path
                   d="M 62.237617,25.265302 H 126.28207 V 44.2095 H 62.237617 Z"
                   id="path5844"
                   style="stroke-width:0.27522" />
              </g>
            </g>
          </g>
        </g>
      </g>
    </clipPath>
    <clipPath
       clipPathUnits="userSpaceOnUse"
       id="clipPath5869">
      <g
         id="g5881">
        <g
           id="g5879">
          <g
             id="g5877">
            <g
               id="g5875">
              <g
                 id="g5873">
                <path
                   d="M 62.237617,25.265302 H 126.28207 V 44.2095 H 62.237617 Z"
                   id="path5871"
                   style="stroke-width:0.27522" />
              </g>
            </g>
          </g>
        </g>
      </g>
    </clipPath>
    <clipPath
       clipPathUnits="userSpaceOnUse"
       id="clipPath5896">
      <g
         id="g5908">
        <g
           id="g5906">
          <g
             id="g5904">
            <g
               id="g5902">
              <g
                 id="g5900">
                <path
                   d="M 62.237617,25.265302 H 126.28207 V 44.2095 H 62.237617 Z"
                   id="path5898"
                   style="stroke-width:0.27522" />
              </g>
            </g>
          </g>
        </g>
      </g>
    </clipPath>
    <clipPath
       clipPathUnits="userSpaceOnUse"
       id="clipPath5923">
      <g
         id="g5935">
        <g
           id="g5933">
          <g
             id="g5931">
            <g
               id="g5929">
              <g
                 id="g5927">
                <path
                   d="M 62.237617,25.265302 H 126.28207 V 44.2095 H 62.237617 Z"
                   id="path5925"
                   style="stroke-width:0.27522" />
              </g>
            </g>
          </g>
        </g>
      </g>
    </clipPath>
    <clipPath
       clipPathUnits="userSpaceOnUse"
       id="clipPath5950">
      <g
         id="g5962">
        <g
           id="g5960">
          <g
             id="g5958">
            <g
               id="g5956">
              <g
                 id="g5954">
                <path
                   d="M 62.237617,25.265302 H 126.28207 V 44.2095 H 62.237617 Z"
                   id="path5952"
                   style="stroke-width:0.27522" />
              </g>
            </g>
          </g>
        </g>
      </g>
    </clipPath>
    <clipPath
       clipPathUnits="userSpaceOnUse"
       id="clipPath5977">
      <g
         id="g5989">
        <g
           id="g5987">
          <g
             id="g5985">
            <g
               id="g5983">
              <g
                 id="g5981">
                <path
                   d="M 62.237617,25.265302 H 126.28207 V 44.2095 H 62.237617 Z"
                   id="path5979"
                   style="stroke-width:0.27522" />
              </g>
            </g>
          </g>
        </g>
      </g>
    </clipPath>
    <clipPath
       clipPathUnits="userSpaceOnUse"
       id="clipPath6004">
      <g
         id="g6016">
        <g
           id="g6014">
          <g
             id="g6012">
            <g
               id="g6010">
              <g
                 id="g6008">
                <path
                   d="M 62.237617,25.265302 H 126.28207 V 44.2095 H 62.237617 Z"
                   id="path6006"
                   style="stroke-width:0.27522" />
              </g>
            </g>
          </g>
        </g>
      </g>
    </clipPath>
    <clipPath
       clipPathUnits="userSpaceOnUse"
       id="clipPath6031">
      <g
         id="g6043">
        <g
           id="g6041">
          <g
             id="g6039">
            <g
               id="g6037">
              <g
                 id="g6035">
                <path
                   d="M 62.237617,25.265302 H 126.28207 V 44.2095 H 62.237617 Z"
                   id="path6033"
                   style="stroke-width:0.27522" />
              </g>
            </g>
          </g>
        </g>
      </g>
    </clipPath>
    <clipPath
       clipPathUnits="userSpaceOnUse"
       id="clipPath6058">
      <g
         id="g6070">
        <g
           id="g6068">
          <g
             id="g6066">
            <g
               id="g6064">
              <g
                 id="g6062">
                <path
                   d="M 62.237617,25.265302 H 126.28207 V 44.2095 H 62.237617 Z"
                   id="path6060"
                   style="stroke-width:0.27522" />
              </g>
            </g>
          </g>
        </g>
      </g>
    </clipPath>
    <clipPath
       clipPathUnits="userSpaceOnUse"
       id="clipPath6085">
      <g
         id="g6097">
        <g
           id="g6095">
          <g
             id="g6093">
            <g
               id="g6091">
              <g
                 id="g6089">
                <path
                   d="M 62.237617,25.265302 H 126.28207 V 44.2095 H 62.237617 Z"
                   id="path6087"
                   style="stroke-width:0.27522" />
              </g>
            </g>
          </g>
        </g>
      </g>
    </clipPath>
    <clipPath
       clipPathUnits="userSpaceOnUse"
       id="clipPath6112">
      <g
         id="g6124">
        <g
           id="g6122">
          <g
             id="g6120">
            <g
               id="g6118">
              <g
                 id="g6116">
                <path
                   d="M 62.237617,25.265302 H 126.28207 V 44.2095 H 62.237617 Z"
                   id="path6114"
                   style="stroke-width:0.27522" />
              </g>
            </g>
          </g>
        </g>
      </g>
    </clipPath>
    <clipPath
       clipPathUnits="userSpaceOnUse"
       id="clipPath6139">
      <g
         id="g6151">
        <g
           id="g6149">
          <g
             id="g6147">
            <g
               id="g6145">
              <g
                 id="g6143">
                <path
                   d="M 62.237617,25.265302 H 126.28207 V 44.2095 H 62.237617 Z"
                   id="path6141"
                   style="stroke-width:0.27522" />
              </g>
            </g>
          </g>
        </g>
      </g>
    </clipPath>
    <clipPath
       clipPathUnits="userSpaceOnUse"
       id="clipPath6166">
      <g
         id="g6178">
        <g
           id="g6176">
          <g
             id="g6174">
            <g
               id="g6172">
              <g
                 id="g6170">
                <path
                   d="M 62.237617,25.265302 H 126.28207 V 44.2095 H 62.237617 Z"
                   id="path6168"
                   style="stroke-width:0.27522" />
              </g>
            </g>
          </g>
        </g>
      </g>
    </clipPath>
    <clipPath
       clipPathUnits="userSpaceOnUse"
       id="clipPath6193">
      <g
         id="g6205">
        <g
           id="g6203">
          <g
             id="g6201">
            <g
               id="g6199">
              <g
                 id="g6197">
                <path
                   d="M 62.237617,25.265302 H 126.28207 V 44.2095 H 62.237617 Z"
                   id="path6195"
                   style="stroke-width:0.27522" />
              </g>
            </g>
          </g>
        </g>
      </g>
    </clipPath>
    <clipPath
       clipPathUnits="userSpaceOnUse"
       id="clipPath6220">
      <g
         id="g6232">
        <g
           id="g6230">
          <g
             id="g6228">
            <g
               id="g6226">
              <g
                 id="g6224">
                <path
                   d="M 62.237617,25.265302 H 126.28207 V 44.2095 H 62.237617 Z"
                   id="path6222"
                   style="stroke-width:0.27522" />
              </g>
            </g>
          </g>
        </g>
      </g>
    </clipPath>
    <clipPath
       clipPathUnits="userSpaceOnUse"
       id="clipPath6247">
      <g
         id="g6259">
        <g
           id="g6257">
          <g
             id="g6255">
            <g
               id="g6253">
              <g
                 id="g6251">
                <path
                   d="M 62.237617,25.265302 H 126.28207 V 44.2095 H 62.237617 Z"
                   id="path6249"
                   style="stroke-width:0.27522" />
              </g>
            </g>
          </g>
        </g>
      </g>
    </clipPath>
    <clipPath
       clipPathUnits="userSpaceOnUse"
       id="clipPath6274">
      <g
         id="g6286">
        <g
           id="g6284">
          <g
             id="g6282">
            <g
               id="g6280">
              <g
                 id="g6278">
                <path
                   d="M 62.237617,25.265302 H 126.28207 V 44.2095 H 62.237617 Z"
                   id="path6276"
                   style="stroke-width:0.27522" />
              </g>
            </g>
          </g>
        </g>
      </g>
    </clipPath>
    <clipPath
       clipPathUnits="userSpaceOnUse"
       id="clipPath6301">
      <g
         id="g6313">
        <g
           id="g6311">
          <g
             id="g6309">
            <g
               id="g6307">
              <g
                 id="g6305">
                <path
                   d="M 62.237617,25.265302 H 126.28207 V 44.2095 H 62.237617 Z"
                   id="path6303"
                   style="stroke-width:0.27522" />
              </g>
            </g>
          </g>
        </g>
      </g>
    </clipPath>
    <clipPath
       clipPathUnits="userSpaceOnUse"
       id="clipPath6328">
      <g
         id="g6340">
        <g
           id="g6338">
          <g
             id="g6336">
            <g
               id="g6334">
              <g
                 id="g6332">
                <path
                   d="M 62.237617,25.265302 H 126.28207 V 44.2095 H 62.237617 Z"
                   id="path6330"
                   style="stroke-width:0.27522" />
              </g>
            </g>
          </g>
        </g>
      </g>
    </clipPath>
    <clipPath
       clipPathUnits="userSpaceOnUse"
       id="clipPath6355">
      <g
         id="g6367">
        <g
           id="g6365">
          <g
             id="g6363">
            <g
               id="g6361">
              <g
                 id="g6359">
                <path
                   d="M 62.237617,25.265302 H 126.28207 V 44.2095 H 62.237617 Z"
                   id="path6357"
                   style="stroke-width:0.27522" />
              </g>
            </g>
          </g>
        </g>
      </g>
    </clipPath>
  </defs>
  <g
     inkscape:label="Layer 1"
     inkscape:groupmode="layer"
     id="layer1">
    <g
       id="g6729"
       style="fill:#f37b4a">
      <g
         id="g193"
         inkscape:export-filename="/home/sergio/sembrarycrecersite/static/images/logo.png"
         inkscape:export-xdpi="61.935482"
         inkscape:export-ydpi="61.935482">
        <g
           id="g6383"
           transform="matrix(1.2243261,0,0,1.2243261,-106.70448,-4.575008)"
           inkscape:export-filename="/home/sergio/sembrarycrecersite/static/images/logo.png"
           inkscape:export-xdpi="96"
           inkscape:export-ydpi="96"
           style="fill:#f37b4a">
          <path
             d="m 9.7829446,26.403725 c 0.1158027,-0.08499 0.4641004,-0.286477 0.7740944,-0.447175 0.734365,-0.380366 4.669327,-3.033308 5.834833,-3.933359 2.504537,-1.935146 6.451971,-5.556909 8.731673,-8.012631 0.812932,-0.875286 1.542309,-1.66007 1.622123,-1.743804 0.578477,-0.608408 2.652764,-2.9971417 2.880805,-3.3174687 L 29.907962,8.5539563 29.038554,7.8010636 C 27.420885,6.4005675 26.980123,5.2174242 27.739609,4.3148787 c 0.30643,-0.3641538 0.4641,-0.4331006 0.991979,-0.4331006 0.477819,0 0.708711,0.082131 0.972562,0.3459816 l 0.345269,0.3452691 0.34527,-0.3452691 c 0.585781,-0.5857815 1.846601,-0.4061989 2.172629,0.3101721 0.250845,0.5510409 0.181186,1.0554045 -0.252093,1.8097229 -0.388562,0.6780669 -1.355421,1.6887539 -1.913945,2.0017769 -0.253696,0.1414567 -0.246391,0.1753067 0.14502,0.6905387 0.858541,1.1296957 4.274353,4.8540757 4.530187,4.9390567 0.129164,0.04258 0.181899,-0.447175 0.211117,-1.958484 l 0.03955,-2.016565 1.150896,-0.04026 1.150185,-0.04115 0.398003,0.4975937 0.397292,0.497951 0.07037,3.335819 0.07038,3.335464 1.618382,1.46659 c 2.773732,2.514159 6.030628,4.938346 9.034361,6.725443 1.573131,0.935327 1.17584,0.864955 -0.941739,-0.167824 C 43.76273,23.413182 38.733525,19.558211 32.96158,13.875168 31.428358,12.365106 30.122108,11.12994 30.059039,11.12994 c -0.06306,0 -1.313553,1.172099 -2.778899,2.603594 -3.349359,3.274355 -4.549962,4.357017 -7.00408,6.319243 -3.199529,2.55834 -5.93086,4.349891 -8.593066,5.637078 -1.422766,0.687688 -2.3245982,1.026187 -1.9000494,0.713877"
             style="fill:#f37b4a;fill-opacity:1;fill-rule:nonzero;stroke:none;stroke-width:0.178157"
             id="path258" />
          <path
             d="m 32.957059,53.379562 -0.500967,-0.05036 0.375687,-0.108752 c 0.206535,-0.05963 0.582221,-0.165753 0.834945,-0.235267 2.57265,-0.710901 5.02867,-2.025958 6.650518,-3.561145 0.882215,-0.835254 1.110994,-1.157492 1.893572,-2.666726 0.763422,-1.473242 0.947867,-1.775861 1.506608,-2.469769 0.5504,-0.684022 1.207851,-1.173557 2.337537,-1.740177 0.50004,-0.25087 1.06357,-0.555651 1.252341,-0.677379 0.928248,-0.599214 1.801812,-1.530089 2.640156,-2.812861 0.738706,-1.130149 1.06357,-1.385808 1.370051,-1.079172 0.380476,0.380475 -0.03908,1.691826 -1.182671,3.693685 -0.296595,0.519659 -0.519195,0.965323 -0.494325,0.990194 0.159883,0.159883 1.563147,-1.220981 2.486762,-2.447215 1.291268,-1.713607 2.160043,-3.657693 2.160043,-4.832486 0,-0.669191 0.516106,-1.010584 0.903533,-0.597978 0.218738,0.232796 0.22569,0.450144 0.05051,1.629881 -0.464974,3.129692 -1.922304,6.370761 -4.098568,9.113181 -0.851783,1.07392 -2.790616,2.960232 -3.868089,3.764127 -0.95281,0.710591 -1.955362,1.341936 -2.838504,1.786211 -0.252723,0.127443 -0.594425,0.30092 -0.75956,0.385727 -0.55488,0.285627 -2.578521,0.994056 -3.564235,1.247552 -2.310194,0.594888 -5.210026,0.865685 -7.155347,0.668728"
             style="fill:#f37b4a;fill-opacity:1;fill-rule:nonzero;stroke:none;stroke-width:0.154476"
             id="path262" />
          <path
             d="M 22.817082,53.056127 C 18.713725,52.698205 14.830961,51.196386 11.849566,48.813432 10.054395,47.378964 8.2664855,45.355478 7.0572442,43.38992 5.6155158,41.047594 4.5470025,37.894576 4.4927813,35.824438 c -0.015139,-0.581604 0.0034,-0.684948 0.1390288,-0.784895 0.086043,-0.06303 0.2405197,-0.11493 0.3426286,-0.11493 0.3257908,0 0.4787224,0.246081 0.5357242,0.861978 0.1739405,1.871018 1.6054734,4.353609 3.6289599,6.29306 0.9594532,0.920062 1.0601712,0.909557 0.5063736,-0.05237 -1.4080525,-2.446443 -1.7985688,-3.958458 -1.0220159,-3.958458 0.264927,0 0.4291355,0.184753 1.1593455,1.300846 0.546229,0.835253 1.42937,1.79965 2.148612,2.345878 0.288871,0.219666 0.906622,0.581758 1.372214,0.804205 1.902532,0.91002 2.567398,1.628335 3.900993,4.21597 0.342938,0.665021 0.802814,1.435086 1.022016,1.711135 1.018154,1.281536 3.157652,2.728362 5.283711,3.572885 0.68155,0.270797 2.274974,0.802968 2.40597,0.803277 0.04696,4.64e-4 0.23017,0.04418 0.407818,0.09747 l 0.322392,0.09686 -0.483665,0.05561 c -0.652045,0.07384 -2.405198,0.06534 -3.345805,-0.01684"
             style="fill:#f37b4a;fill-opacity:1;fill-rule:nonzero;stroke:none;stroke-width:0.154476"
             id="path266" />
          <path
             d="m 24.748347,31.026036 c -0.0013,-0.0039 -0.0037,-0.0016 -0.0057,0.0057 -0.0023,0.0088 -0.0016,0.01084 0.0023,0.0069 0.0032,-0.0032 0.0046,-0.0088 0.0033,-0.01265 z m 7.593247,11.566691 c 0.02583,-0.02672 0.104754,-0.07875 0.141991,-0.09335 0.02084,-0.0082 0.04614,-0.01301 0.0766,-0.01443 0.06236,-0.0029 0.09514,0.0096 0.141277,0.05398 l 0.03421,0.03296 0.0029,-0.0481 c 0.0016,-0.02636 0.0053,-0.09014 0.0085,-0.141457 0.03029,-0.498663 0.207553,-1.358807 0.389987,-1.892566 0.192232,-0.562978 0.559593,-1.286831 0.909672,-1.793333 l 0.05131,-0.0743 -0.0579,-0.05915 c -0.06057,-0.06217 -0.102436,-0.110278 -0.112412,-0.129342 -0.0065,-0.01247 -0.0023,-0.02048 0.109921,-0.210227 0.200783,-0.338855 0.406021,-0.638693 0.572063,-0.835558 0.05024,-0.0595 0.0538,-0.06538 0.05131,-0.08267 -0.0014,-0.01038 -0.0042,-0.06681 -0.0059,-0.125422 -0.0039,-0.120613 0.0014,-0.18956 0.03225,-0.427222 0.01038,-0.07928 0.02191,-0.171031 0.02583,-0.20399 l 0.0069,-0.05986 -0.0376,-0.01142 c -0.123642,-0.03759 -0.226081,-0.133974 -0.280063,-0.263316 -0.02957,-0.07126 -0.03492,-0.102979 -0.03474,-0.206128 1.79e-4,-0.107788 0.0096,-0.162658 0.05559,-0.328344 0.07465,-0.26884 0.08195,-0.309638 0.12275,-0.688401 0.03029,-0.282023 0.05291,-0.417245 0.104754,-0.624976 0.06325,-0.253161 0.187601,-0.630855 0.308391,-0.935861 0.02459,-0.06217 0.04258,-0.111709 0.04009,-0.110106 -0.162479,0.100303 -0.358096,0.255299 -0.397647,0.314982 -0.04133,0.06217 -0.09496,0.09318 -0.161232,0.093 -0.07786,-3.56e-4 -0.133263,-0.0253 -0.197042,-0.08872 l -0.04383,-0.04347 -0.132727,0.07607 c -0.148584,0.08516 -0.190273,0.110993 -0.350971,0.218064 -0.30358,0.202387 -0.613574,0.426865 -0.877068,0.634775 -0.215571,0.170319 -0.403883,0.326741 -0.960448,0.798501 l -0.203455,0.172279 -3.57e-4,0.04329 c -0.0022,0.147158 -0.0832,0.339746 -0.222162,0.527702 l -0.03349,0.04526 -0.0037,0.04543 c -0.02244,0.276321 -0.101191,0.424905 -0.245679,0.463922 -0.01924,0.0052 -0.02334,0.0095 -0.03973,0.04186 -0.01247,0.02423 -0.0326,0.05042 -0.062,0.07999 l -0.04347,0.04401 -0.0065,0.04686 c -0.01003,0.07126 -0.03438,0.138429 -0.07019,0.19241 -0.03474,0.05256 -0.05933,0.07179 -0.105112,0.08195 -0.07767,0.01746 -0.145911,-0.02619 -0.210226,-0.134509 l -0.02156,-0.03634 -0.03189,0.02067 c -0.05986,0.03866 -0.156243,0.06236 -0.231604,0.05719 -0.126848,-0.0091 -0.188135,-0.08533 -0.149475,-0.185996 0.0022,-0.0059 -0.0045,-0.01038 -0.02548,-0.01693 -0.06681,-0.02102 -0.109206,-0.08658 -0.09318,-0.143951 0.0032,-0.01176 0.0022,-0.0155 -0.0053,-0.01799 -0.03082,-0.01038 -0.07679,-0.03492 -0.0946,-0.0506 -0.03653,-0.03189 -0.04935,-0.0816 -0.03296,-0.127205 l 0.0068,-0.01835 -0.02708,-0.01354 c -0.01497,-0.0073 -0.0383,-0.02459 -0.05203,-0.0383 -0.04525,-0.04507 -0.06521,-0.101548 -0.06556,-0.185106 -1.78e-4,-0.02708 -5.34e-4,-0.04935 -0.0013,-0.04935 -3.56e-4,0 -0.0081,0.01301 -0.01693,0.02868 -0.05167,0.09157 -0.175306,0.189203 -0.270799,0.214144 -0.109748,0.02851 -0.176732,-0.0139 -0.18279,-0.115445 -0.003,-0.05238 0.0105,-0.10119 0.06556,-0.236593 0.02209,-0.05416 0.04543,-0.119722 0.05167,-0.145555 0.01142,-0.04667 0.01211,-0.06556 0.0084,-0.212363 -0.0011,-0.03189 0.0014,-0.04241 0.0155,-0.07215 0.0089,-0.01906 0.03153,-0.05505 0.05024,-0.07999 0.08748,-0.117584 0.10939,-0.168893 0.120078,-0.281311 l 0.0037,-0.0383 -0.03937,0.01247 c -0.102794,0.0326 -0.220559,0.04151 -0.292891,0.02209 -0.08801,-0.02352 -0.160164,-0.07732 -0.196508,-0.146089 -0.0099,-0.01888 -0.02708,-0.0408 -0.03937,-0.05078 -0.03777,-0.03011 -0.142705,-0.148404 -0.147693,-0.16622 -0.0025,-0.0092 -0.04526,-0.07803 -0.09478,-0.15286 -0.04971,-0.07483 -0.126314,-0.19134 -0.170319,-0.258862 -0.15767,-0.24176 -0.251736,-0.37235 -0.398716,-0.553001 -0.301799,-0.37128 -0.551042,-0.610011 -0.936039,-0.896667 -0.115447,-0.08587 -0.47568,-0.341348 -0.481381,-0.341348 -0.0046,0 0.0029,0.147513 0.01211,0.242828 0.02316,0.23784 0.07839,0.508283 0.156779,0.768749 0.07394,0.245144 0.1566,0.472296 0.346516,0.951182 0.22822,0.575449 0.299127,0.775876 0.403704,1.141633 0.117585,0.410653 0.169428,0.652769 0.26118,1.217349 0.05576,0.342776 0.06289,0.39462 0.09157,0.662568 0.0029,0.02565 0.0045,0.02833 0.02904,0.04418 0.04507,0.02921 0.09246,0.101905 0.119721,0.183146 0.02975,0.08908 0.04205,0.234989 0.0294,0.348654 -0.0039,0.03528 -0.0075,0.08107 -0.0078,0.101732 -5.34e-4,0.03564 -0.0023,0.04045 -0.03047,0.08819 -0.09567,0.162124 -0.23784,0.296098 -0.438446,0.413326 -0.05933,0.03456 -0.183501,0.09496 -0.242828,0.117761 -0.02155,0.0084 -0.04026,0.01799 -0.04169,0.0212 -0.0013,0.0033 0.01003,0.04667 0.02495,0.09638 0.259398,0.8605 0.794047,1.864951 1.568854,2.946545 0.04828,0.06752 0.09193,0.128095 0.09692,0.134509 l 0.0089,0.01176 0.03047,-0.02565 c 0.10119,-0.08552 0.206662,-0.09246 0.31712,-0.02084 0.09923,0.06432 0.194548,0.162658 0.274897,0.283626 l 0.03438,0.05167 0.02868,-0.05736 c 0.118296,-0.235702 0.330304,-0.446106 0.533581,-0.529128 0.08587,-0.03492 0.135578,-0.04526 0.221272,-0.04543 0.172099,-5.35e-4 0.292177,0.05184 0.544627,0.237661 0.214145,0.157848 0.282736,0.195439 0.654015,0.3597 0.104224,0.04614 0.217174,0.09478 0.250846,0.108145 0.06306,0.02512 0.167112,0.05915 0.1819,0.05968 0.0045,1.78e-4 0.01657,-0.0082 0.02672,-0.01889 z m -5.50738,2.212894 c -0.187957,-0.01533 -0.308391,-0.06342 -0.417958,-0.166933 -0.167112,-0.158205 -0.234811,-0.392659 -0.177088,-0.614643 0.0408,-0.156957 0.146801,-0.292891 0.282736,-0.362551 0.02495,-0.01282 0.150008,-0.07198 0.277747,-0.131302 0.254766,-0.118475 0.502938,-0.241582 0.627293,-0.311062 0.224478,-0.125424 0.389808,-0.245858 0.481916,-0.350793 0.04667,-0.05327 0.05559,-0.06966 0.06752,-0.122215 0.01073,-0.0481 0.02405,-0.07501 0.04579,-0.09336 0.01746,-0.01461 0.06663,-0.03207 0.108503,-0.0383 0.01371,-0.0022 0.02495,-0.0055 0.02495,-0.0078 0,-0.0022 -0.02851,-0.04205 -0.06325,-0.08872 -0.59273,-0.794582 -1.363795,-2.278099 -1.669869,-3.212713 l -0.02601,-0.07946 -0.0481,0.0033 c -0.02637,0.002 -0.120435,0.0061 -0.208979,0.0091 -0.344735,0.01194 -0.763583,-0.0155 -1.112237,-0.07287 -0.134331,-0.02209 -0.348832,-0.06538 -0.396222,-0.07999 -0.0072,-0.0023 -0.02227,0.02405 -0.07767,0.134866 -0.40905,0.820058 -0.680918,2.009615 -0.796898,3.487253 -0.0059,0.07465 -0.01049,0.145554 -0.01049,0.157491 v 0.02191 l 0.04722,5.34e-4 c 0.08088,8.92e-4 0.147515,0.02832 0.190807,0.07875 0.03706,0.04329 0.06681,0.123285 0.0832,0.225013 0.0089,0.05523 0.0088,0.230535 -1.77e-4,0.296275 -0.03172,0.231248 -0.111882,0.428469 -0.216818,0.5318 -0.113485,0.111881 -0.268306,0.146802 -0.541955,0.122216 -0.16925,-0.01532 -0.348119,-0.01959 -0.558167,-0.01354 -0.363085,0.01073 -0.592195,0.01265 -0.701762,0.0061 -0.304115,-0.01835 -0.476749,-0.05416 -0.736859,-0.152681 -0.279885,-0.106184 -0.532334,-0.237306 -0.789059,-0.409762 -0.282202,-0.18956 -0.393729,-0.295919 -0.46606,-0.444503 -0.07215,-0.147693 -0.0759,-0.327809 -0.01015,-0.492071 0.03172,-0.07946 0.06949,-0.135043 0.138962,-0.204525 0.121147,-0.120968 0.250668,-0.177088 0.411009,-0.177623 0.08017,-3.56e-4 0.08284,1.79e-4 0.314983,0.06307 0.592195,0.160163 0.856759,0.216995 1.107783,0.23784 0.130589,0.01084 0.304649,-0.0016 0.351504,-0.0253 0.0092,-0.0046 0.03047,-0.01906 0.04722,-0.03207 0.06698,-0.05184 0.09657,-0.05256 0.191698,-0.0046 l 0.03509,0.01782 0.0066,-0.107603 c 0.04543,-0.760198 0.258506,-1.869762 0.543024,-2.827893 0.09496,-0.319258 0.222341,-0.678779 0.29592,-0.834311 0.0085,-0.01799 0.0139,-0.03438 0.01158,-0.03634 -0.0096,-0.0085 -0.199537,-0.06645 -0.302868,-0.09229 -0.191519,-0.04775 -0.298413,-0.06253 -0.482985,-0.06663 -0.138072,-0.0032 -0.14698,-0.0042 -0.148762,-0.01337 -0.0011,-0.0055 5.35e-4,-0.01514 0.0037,-0.02138 0.0032,-0.0062 0.01073,-0.04258 0.0171,-0.08071 0.03849,-0.236058 0.120257,-0.49403 0.273115,-0.862282 0.154819,-0.372704 0.277392,-0.607338 0.425084,-0.813466 l 0.04614,-0.06485 -0.02495,-0.07465 c -0.05024,-0.149831 -0.09033,-0.339389 -0.126848,-0.600569 -0.05363,-0.384998 -0.08676,-0.681274 -0.108145,-0.966326 -0.01084,-0.145376 -0.0091,-0.608585 0.0027,-0.747548 0.04329,-0.504542 0.134151,-0.937286 0.299481,-1.423834 l 0.01853,-0.0547 -0.04365,0.03564 c -0.173168,0.140922 -0.438267,0.252806 -0.729911,0.308034 -0.271333,0.05131 -0.525564,0.05203 -0.915372,0.003 -0.331195,-0.04169 -0.719935,-0.122037 -1.12061,-0.231604 l -0.106357,-0.02904 -0.03741,0.02636 c -0.09674,0.06788 -0.190629,0.06164 -0.29307,-0.01959 -0.05274,-0.04169 -0.10119,-0.117228 -0.133796,-0.208089 -0.01657,-0.04632 -0.03955,-0.147514 -0.04454,-0.196329 -0.0043,-0.0433 -0.0088,-0.04632 -0.06627,-0.04632 -0.03564,0 -0.03849,0.0011 -0.0775,0.02725 -0.122572,0.08231 -0.277391,0.122929 -0.556564,0.146089 -0.08694,0.0073 -0.10209,0.0099 -0.136112,0.02459 -0.05095,0.02155 -0.129699,0.04471 -0.2031,0.0595 -0.08035,0.01622 -0.267948,0.01763 -0.341706,0.0025 -0.101548,-0.02067 -0.201674,-0.06325 -0.270443,-0.115273 -0.06521,-0.04935 -0.142169,-0.136646 -0.164796,-0.187065 -0.0092,-0.02067 -0.0139,-0.02423 -0.0522,-0.04009 -0.147871,-0.06111 -0.267949,-0.189204 -0.314982,-0.335827 -0.0091,-0.02887 -0.01247,-0.03296 -0.04311,-0.05256 -0.06859,-0.04347 -0.13148,-0.127738 -0.160876,-0.215213 -0.01693,-0.05042 -0.03278,-0.138964 -0.03278,-0.182077 0,-0.04294 0.01622,-0.127917 0.03242,-0.168715 0.02904,-0.07358 0.09353,-0.14413 0.163193,-0.178692 0.03866,-0.01906 0.04436,-0.02031 0.08961,-0.02031 0.03955,0 0.05238,0.0022 0.07037,0.01176 0.03136,0.01675 0.06859,0.06057 0.08303,0.09781 0.01194,0.03064 0.01301,0.03189 0.03153,0.03189 0.0734,0 0.131479,0.05184 0.156956,0.140031 0.0048,0.01693 0.01084,0.03082 0.01318,0.03082 0.0023,0 0.0244,-0.0095 0.04899,-0.02103 0.163371,-0.07661 0.411009,-0.138071 0.776231,-0.192588 0.253341,-0.03777 0.377337,-0.07483 0.461607,-0.138249 0.0294,-0.02209 0.05897,-0.05523 0.07251,-0.08142 0.0069,-0.01337 0.0052,-0.01889 -0.02921,-0.09086 -0.106542,-0.223409 -0.136826,-0.325315 -0.136113,-0.45822 3.57e-4,-0.06859 0.002,-0.08231 0.01443,-0.120078 0.02476,-0.075 0.06556,-0.12578 0.123107,-0.152682 0.07626,-0.03562 0.161054,-0.03492 0.199358,0.0017 0.03278,0.03117 0.04098,0.06253 0.05487,0.209691 0.01015,0.106 0.03777,0.195438 0.08498,0.273828 0.01407,0.02352 0.0563,0.08409 0.09389,0.134687 0.148226,0.199893 0.193834,0.289684 0.222518,0.43809 0.0065,0.03349 0.01229,0.06182 0.01318,0.06272 5.34e-4,0.0013 0.0095,-0.0043 0.01924,-0.01175 0.0604,-0.04614 0.136825,-0.0563 0.201497,-0.02708 0.05719,0.02583 0.125601,0.08837 0.164439,0.150366 l 0.01461,0.02316 0.03474,-0.0042 c 0.05433,-0.0066 0.137894,-0.0039 0.178692,0.0059 0.02067,0.005 0.07714,0.02601 0.1256,0.04686 0.165865,0.07144 0.189738,0.07696 0.376982,0.08712 0.148583,0.0081 0.216104,0.01835 0.286121,0.04347 0.04026,0.01443 0.118473,0.05256 0.144664,0.07019 l 0.01497,0.01038 0.03564,-0.01301 c 0.02405,-0.0088 0.05167,-0.01407 0.08391,-0.01567 0.04579,-0.0025 0.07215,0.0017 0.133441,0.02191 0.0085,0.0027 0.01282,-5.34e-4 0.0212,-0.01603 0.01693,-0.03172 0.07358,-0.07946 0.12186,-0.102978 0.05399,-0.02619 0.102978,-0.04169 0.238018,-0.07518 0.176554,-0.04383 0.289328,-0.07856 0.409227,-0.126136 0.09229,-0.03634 0.162836,-0.06983 0.397469,-0.187955 0.308569,-0.155354 0.456796,-0.220916 0.635489,-0.281133 0.205771,-0.0693 0.425082,-0.109921 0.594332,-0.109921 h 0.05791 l 0.03741,-0.03421 c 0.06592,-0.06021 0.135221,-0.08499 0.182434,-0.06521 0.02993,0.01247 0.03545,0.01119 0.03545,-0.0078 v -0.01639 l -0.02013,0.003 c -0.08961,0.01407 -0.205416,0.02084 -0.361659,0.02103 -0.207376,1.78e-4 -0.351149,-0.01301 -0.517904,-0.04792 -0.303224,-0.0636 -0.573133,-0.202922 -0.853196,-0.440585 -0.08444,-0.07179 -0.0709,-0.06521 -0.107788,-0.05184 -0.0237,0.0088 -0.04437,0.01175 -0.07999,0.01194 -0.05933,3.57e-4 -0.09425,-0.01301 -0.124889,-0.04792 -0.03884,-0.04418 -0.04151,-0.09336 -0.0089,-0.15963 0.02263,-0.04579 0.05184,-0.08248 0.162124,-0.204347 0.04722,-0.05203 0.09513,-0.106542 0.106714,-0.121325 0.05256,-0.06717 0.135756,-0.191697 0.184928,-0.277034 l 0.01514,-0.02637 -0.03136,0.02423 c -0.128095,0.09834 -0.296098,0.165152 -0.500088,0.198824 -0.11473,0.01888 -0.195973,0.0253 -0.241404,0.01888 -0.08783,-0.01229 -0.166399,-0.07571 -0.213431,-0.172099 -0.01337,-0.02744 -0.02423,-0.05273 -0.02423,-0.05629 0,-0.0045 -0.01532,-0.0065 -0.05363,-0.0065 -0.0294,0 -0.07679,-0.0025 -0.105285,-0.0055 -0.155888,-0.01675 -0.246926,-0.06467 -0.290397,-0.153037 -0.01567,-0.03172 -0.01782,-0.04115 -0.01782,-0.07892 0,-0.05095 0.0096,-0.0743 0.04436,-0.108145 l 0.02334,-0.02263 -0.02476,-0.03777 c -0.07964,-0.120791 -0.135045,-0.285765 -0.160877,-0.477462 -0.01142,-0.08516 -0.01301,-0.29396 -0.0027,-0.373774 0.0071,-0.05648 0.02049,-0.138429 0.02476,-0.152503 0.002,-0.0062 -0.0052,-0.01073 -0.02815,-0.01782 -0.09923,-0.03082 -0.174415,-0.123819 -0.210048,-0.259397 -0.01657,-0.06325 -0.02031,-0.17887 -0.0081,-0.239977 0.01693,-0.08373 0.05416,-0.161411 0.101906,-0.213077 0.05042,-0.05452 0.10796,-0.07536 0.178691,-0.06485 0.02601,0.0039 0.05487,0.01532 0.114914,0.04526 0.09942,0.04952 0.118474,0.05629 0.159451,0.05612 0.05879,0 0.113311,-0.03456 0.173881,-0.109921 0.08784,-0.109033 0.136647,-0.238731 0.182255,-0.482629 0.02868,-0.153749 0.05755,-0.298947 0.0636,-0.319971 0.0045,-0.01603 0.0029,-0.01959 -0.02495,-0.05238 -0.113669,-0.133974 -0.188135,-0.314269 -0.223232,-0.540529 -0.01212,-0.07786 -0.01657,-0.283092 -0.0084,-0.379832 0.03243,-0.379297 0.146624,-0.68929 0.321931,-0.872614 0.04846,-0.05078 0.11901,-0.108145 0.152146,-0.123998 0.0096,-0.0046 0.01746,-0.0098 0.01746,-0.01175 0,-0.002 -0.0096,-0.0065 -0.02138,-0.01003 -0.167112,-0.05007 -0.322999,-0.212364 -0.376981,-0.393015 -0.01229,-0.04134 -0.01443,-0.05825 -0.01497,-0.120078 -5.35e-4,-0.08463 0.0061,-0.1142 0.04311,-0.194904 0.02851,-0.062 0.03403,-0.06913 0.04863,-0.06449 0.01514,0.0048 0.01763,0.01497 0.01175,0.0465 -0.02067,0.108676 0.06663,0.220381 0.239088,0.306253 0.129164,0.06414 0.27169,0.09834 0.411009,0.0987 l 0.05469,1.78e-4 0.0734,-0.05131 c 0.27169,-0.189382 0.578833,-0.357206 0.862104,-0.471049 0.402279,-0.161766 0.724566,-0.230179 1.266699,-0.26884 0.116871,-0.0084 0.474077,-0.0084 0.571351,1.79e-4 0.356315,0.03082 0.61393,0.09086 0.867448,0.202209 0.08071,0.03528 0.187244,0.0921 0.190807,0.101375 0.0014,0.0037 0.0092,0.0069 0.01746,0.0069 0.01265,0 0.01853,-0.0057 0.03937,-0.03937 0.04756,-0.07626 0.127917,-0.138784 0.215926,-0.167824 0.03528,-0.01158 0.05078,-0.01354 0.110452,-0.01373 0.06111,0 0.07447,0.0016 0.112066,0.01407 0.09638,0.03225 0.175128,0.09906 0.218421,0.185639 0.01354,0.02691 0.02476,0.05291 0.02495,0.05772 0.0013,0.0237 0.01038,-0.0294 0.01586,-0.09282 0.01301,-0.150543 -0.01799,-0.309103 -0.08427,-0.429538 -0.0832,-0.15179 -0.229467,-0.275966 -0.44575,-0.37894 -0.0759,-0.03598 -0.124532,-0.05399 -0.199002,-0.07375 -0.04756,-0.01265 -0.06306,-0.01425 -0.141457,-0.01407 -0.08177,0 -0.0914,0.0011 -0.132015,0.01461 -0.115802,0.03866 -0.199536,0.132728 -0.231782,0.260645 -0.0095,0.0367 -0.01084,0.05487 -0.0088,0.104754 0.0017,0.03919 7.13e-4,0.06146 -0.0029,0.06378 -0.0091,0.0055 -0.04045,-0.03528 -0.06217,-0.08124 -0.02405,-0.05078 -0.04418,-0.110451 -0.05933,-0.176019 -0.01443,-0.06217 -0.01995,-0.203812 -0.01049,-0.263317 0.02299,-0.143239 0.09335,-0.260645 0.207374,-0.34616 0.02263,-0.01693 0.04311,-0.03242 0.04579,-0.03456 0.0048,-0.0042 -0.0045,-0.0033 -0.09015,0.0065 -0.167112,0.01906 -0.351505,0.07233 -0.486548,0.140031 -0.114015,0.05737 -0.229646,0.150721 -0.295564,0.239265 -0.031,0.04151 -0.07875,0.129343 -0.09086,0.166933 -0.01247,0.0392 -0.01835,0.0088 -0.01818,-0.09549 1.78e-4,-0.186174 0.04151,-0.340459 0.132192,-0.493317 0.175129,-0.294851 0.538036,-0.509352 0.983251,-0.580972 0.08391,-0.01354 0.3075,-0.01354 0.387493,0 0.21753,0.0367 0.410118,0.123642 0.584178,0.263851 0.0554,0.04471 0.15179,0.141101 0.184037,0.184393 0.01038,0.01371 0.02048,0.02512 0.02263,0.02529 0.0062,0 0.04454,-0.05363 0.05968,-0.08391 0.02351,-0.04722 0.03136,-0.09193 0.02851,-0.164261 -0.0023,-0.05469 -0.0053,-0.07179 -0.02084,-0.117762 -0.03883,-0.114557 -0.114915,-0.225013 -0.244966,-0.356136 -0.04596,-0.0465 -0.0816,-0.08552 -0.07911,-0.08712 0.0025,-0.0016 0.0068,-0.0016 0.0095,1.77e-4 0.0027,0.0016 0.03207,0.0076 0.06538,0.01337 0.119544,0.02067 0.259042,0.0661 0.363085,0.118119 0.254231,0.127381 0.432744,0.31997 0.536432,0.578654 0.01532,0.0383 0.02904,0.06592 0.03047,0.06146 0.0832,-0.273828 0.318723,-0.46214 0.657578,-0.525564 0.146624,-0.02744 0.324782,-0.03509 0.345091,-0.01497 0.01003,0.01003 -0.0043,0.02583 -0.07145,0.07963 -0.165687,0.132549 -0.239266,0.216105 -0.295385,0.334937 -0.03902,0.08284 -0.04756,0.124175 -0.04775,0.232851 0,0.05131 0.002,0.100129 0.0042,0.108317 l 0.0043,0.01479 0.03047,-0.02334 c 0.195617,-0.150365 0.500979,-0.230001 0.794049,-0.206841 0.476393,0.03741 0.973629,0.277392 1.523601,0.735256 0.02014,0.01675 0.01015,0.02102 -0.01924,0.0085 -0.01407,-0.0061 -0.07002,-0.03011 -0.124353,-0.05363 -0.300017,-0.129698 -0.537144,-0.190271 -0.771599,-0.197041 -0.189739,-0.0055 -0.324959,0.02048 -0.463744,0.08961 -0.04935,0.0244 -0.147871,0.08925 -0.151256,0.09941 -7.13e-4,0.0023 0.02405,0.01084 0.05505,0.01889 0.118475,0.031 0.286656,0.09942 0.404595,0.164439 0.424372,0.233921 0.66524,0.570994 0.7194,1.006056 0.0096,0.0766 0.0082,0.262247 -0.0027,0.349722 -0.01603,0.130767 -0.04864,0.278995 -0.0905,0.410297 l -0.01763,0.05523 -0.0062,-0.08997 c -0.01567,-0.226794 -0.0766,-0.427043 -0.183324,-0.603776 -0.126493,-0.209513 -0.324425,-0.375376 -0.570638,-0.478173 -0.0661,-0.02761 -0.08533,-0.03313 -0.08533,-0.0244 0,0.0033 0.02263,0.03652 0.05024,0.07358 0.119365,0.159808 0.182967,0.296098 0.219667,0.470336 0.01889,0.09015 0.02405,0.261891 0.01084,0.363085 -0.03385,0.257793 -0.138428,0.517369 -0.321217,0.796719 -0.02459,0.03741 -0.04561,0.06806 -0.04686,0.06806 -0.0014,0 0.0059,-0.02084 0.01586,-0.0465 0.03634,-0.09229 0.06681,-0.217887 0.0775,-0.318367 0.0088,-0.08338 0.0032,-0.237663 -0.01107,-0.303937 -0.02565,-0.119544 -0.07215,-0.22715 -0.137715,-0.318546 -0.05915,-0.08231 -0.154642,-0.17299 -0.24372,-0.230714 -0.05648,-0.0367 -0.06004,-0.02993 -0.0383,0.07109 0.02726,0.12667 0.02993,0.226438 0.0085,0.324781 -0.01995,0.09157 -0.06325,0.187421 -0.121326,0.267948 -0.02851,0.03973 -0.123819,0.145556 -0.12756,0.141814 -0.0011,-0.0011 0.0042,-0.01657 0.01142,-0.03438 0.03242,-0.08035 0.03777,-0.192767 0.01337,-0.279174 -0.05523,-0.195082 -0.238553,-0.368964 -0.545696,-0.517725 -0.09674,-0.04686 -0.17299,-0.07394 -0.25619,-0.0914 -0.09567,-0.01995 -0.23873,-0.01443 -0.308212,0.01194 l -0.01282,0.0048 0.02601,0.01657 c 0.08017,0.05059 0.143061,0.138607 0.165686,0.231605 0.01158,0.04756 0.01194,0.138606 8.92e-4,0.179226 l -0.0081,0.02993 0.06182,0.05274 c 0.08267,0.0709 0.249242,0.234276 0.32585,0.319792 0.03421,0.0383 0.106542,0.123107 0.160697,0.188847 0.265455,0.320862 0.365936,0.474077 0.484945,0.740066 0.02636,0.05879 0.06753,0.148939 0.09157,0.200249 0.164617,0.352039 0.227151,0.586316 0.312132,1.169247 0.01657,0.112954 0.03492,0.234277 0.0408,0.269552 0.03474,0.204881 0.09282,0.43506 0.135756,0.537857 0.01978,0.04703 0.07518,0.143061 0.105469,0.182969 0.02405,0.03136 0.08533,0.09335 0.09246,0.09335 0.0033,0 0.0089,0.0033 0.01229,0.0075 0.02583,0.03117 -0.10939,0.04632 -0.191698,0.02174 -0.03474,-0.0105 -0.0971,-0.04098 -0.120968,-0.05897 -0.02138,-0.01622 -0.02405,-0.01622 -0.01799,0 0.0029,0.0071 0.0078,0.03866 0.01142,0.07019 0.0171,0.152682 -0.03313,0.350081 -0.140744,0.552288 -0.03884,0.07287 -0.04561,0.08267 -0.05737,0.08267 h -0.01337 l 0.0017,-0.03741 c 8.91e-4,-0.02048 0.0039,-0.05772 0.0066,-0.08267 0.0089,-0.0816 0.0061,-0.08836 -0.01175,-0.02976 -0.09567,0.316585 -0.334045,0.679136 -0.663814,1.009617 -0.241048,0.241583 -0.468733,0.406021 -0.772669,0.558168 -0.43898,0.219846 -0.933189,0.349545 -1.501689,0.394262 -0.200071,0.01586 -0.531979,0.02031 -0.542667,0.0075 -0.0073,-0.0088 0.01514,-0.02459 0.104754,-0.0743 0.04115,-0.0228 0.08801,-0.0506 0.104223,-0.06182 0.03385,-0.02352 0.06289,-0.04722 0.05772,-0.04722 -0.002,0 -0.03564,0.01176 -0.07518,0.02619 -0.310884,0.113669 -0.592195,0.181364 -0.755387,0.181899 h -0.03332 v 0.0481 c 0,0.02636 0.0017,0.04792 0.0039,0.04775 0.01567,-0.0013 0.0759,-0.02031 0.08676,-0.02761 0.0081,-0.0053 0.03349,-0.01084 0.06432,-0.01407 0.1452,-0.01478 0.264208,0.03617 0.31534,0.135045 l 0.01746,0.03349 0.05897,0.0033 c 0.17691,0.01003 0.392303,0.08463 0.611793,0.212008 0.200248,0.116159 0.382147,0.248707 0.787277,0.573845 0.132193,0.106 0.337608,0.269195 0.456617,0.362729 0.405309,0.318723 0.726349,0.584178 1.003562,0.830034 0.664704,0.589345 0.855689,0.781756 1.053088,1.06164 l 0.04275,0.0604 0.0433,0.02031 c 0.05238,0.02423 0.0914,0.05452 0.123462,0.09531 0.08391,0.106899 0.107603,0.247461 0.06467,0.38286 l -0.01229,0.03884 0.0326,0.02138 c 0.04561,0.02993 0.121504,0.06717 0.198647,0.09745 l 0.06574,0.02565 0.03634,-0.01229 c 0.08391,-0.02832 0.211116,-0.03207 0.287011,-0.0082 0.04365,0.01371 0.117229,0.05131 0.148227,0.0759 0.01194,0.0095 0.03385,0.02138 0.04882,0.02636 l 0.02725,0.0095 0.06146,-0.06021 c 0.349901,-0.342596 0.650453,-0.593798 1.406731,-1.176017 0.59273,-0.45644 0.814179,-0.620344 1.015853,-0.752002 0.02691,-0.01763 0.04899,-0.03368 0.04918,-0.03563 0,-0.0022 -0.01675,-0.02957 -0.03741,-0.06129 -0.08035,-0.123463 -0.101018,-0.234278 -0.05933,-0.31908 0.04792,-0.0971 0.184036,-0.134688 0.321218,-0.08836 l 0.03189,0.01073 0.05203,-0.01924 c 0.124709,-0.04632 0.285585,-0.13718 0.476393,-0.269195 0.313022,-0.216461 0.394975,-0.268662 0.611791,-0.38874 0.322466,-0.178513 0.56476,-0.274362 0.792089,-0.313379 0.04401,-0.0075 0.05309,-0.01107 0.07109,-0.02726 0.04347,-0.03937 0.137182,-0.08925 0.180296,-0.09602 l 0.0212,-0.0033 v -0.04935 -0.04918 l -0.145555,-0.0032 c -0.548012,-0.01265 -1.029215,-0.0864 -1.402633,-0.21468 -0.152859,-0.05256 -0.325315,-0.130055 -0.456796,-0.205059 -0.192588,-0.110105 -0.381257,-0.2553 -0.526633,-0.405308 -0.315339,-0.325315 -0.47479,-0.70782 -0.517013,-1.239441 -0.01194,-0.149653 -0.0045,-0.508284 0.01407,-0.678779 l 0.0033,-0.03011 -0.03136,-0.0091 c -0.05559,-0.01621 -0.102793,-0.0449 -0.149295,-0.09086 -0.09282,-0.09193 -0.147515,-0.20791 -0.155354,-0.329235 -0.0095,-0.150186 0.06004,-0.249598 0.203991,-0.291822 0.02049,-0.0061 0.07875,-0.01835 0.129342,-0.02744 0.175128,-0.031 0.227329,-0.06111 0.278459,-0.160342 0.05933,-0.114914 0.08303,-0.228932 0.104582,-0.504541 0.0073,-0.09389 0.01478,-0.177267 0.01639,-0.184928 0.0022,-0.0105 -0.0046,-0.02957 -0.02601,-0.07215 -0.194548,-0.388561 -0.148939,-0.909314 0.114557,-1.30714 l 0.03189,-0.0481 -0.15375,0.152503 c -0.166934,0.16533 -0.27276,0.259041 -0.303759,0.268661 -0.01799,0.0055 -0.03723,-0.01407 -0.05042,-0.05148 -0.01497,-0.04222 -0.02031,-0.142882 -0.01073,-0.198467 0.01119,-0.06414 0.04169,-0.149296 0.08195,-0.228755 0.104582,-0.206662 0.280599,-0.414928 0.475147,-0.562443 0.02993,-0.02263 0.05665,-0.04329 0.05968,-0.04596 0.0029,-0.0029 -0.01799,0.0065 -0.0465,0.02049 l -0.05167,0.02566 -0.01142,-0.01015 c -0.0075,-0.0068 -0.01015,-0.0139 -0.0081,-0.0212 0.0017,-0.0059 0.0039,-0.01567 0.0048,-0.02174 0.0016,-0.01142 0.03813,-0.06414 0.08837,-0.127917 0.182256,-0.230892 0.392838,-0.41386 0.632994,-0.55015 0.213789,-0.121326 0.503116,-0.223231 0.787456,-0.27757 l 0.0775,-0.01461 0.04401,-0.04169 c 0.220559,-0.208088 0.549616,-0.34705 0.94085,-0.396935 0.3385,-0.04311 0.745589,-0.0062 1.122926,0.101548 0.212186,0.06057 0.502761,0.178869 0.638873,0.260109 l 0.05078,0.03029 -0.04597,-0.044 c -0.02529,-0.02423 -0.07981,-0.07037 -0.121324,-0.10262 -0.07946,-0.062 -0.08854,-0.07394 -0.07483,-0.09851 0.0068,-0.01212 0.01142,-0.0139 0.04205,-0.01533 0.08391,-0.0042 0.223766,0.03456 0.345983,0.09532 0.207909,0.103508 0.37413,0.256546 0.474432,0.436663 0.01586,0.02833 0.02761,0.04561 0.02619,0.0383 -0.0016,-0.0073 -0.0066,-0.04098 -0.01119,-0.07483 -0.0046,-0.03368 -0.01835,-0.109391 -0.03047,-0.168181 -0.02725,-0.131302 -0.02815,-0.145911 -0.0084,-0.157135 0.01194,-0.0068 0.01746,-0.0069 0.03153,-0.0017 0.03598,0.01354 0.07767,0.04311 0.122217,0.08676 0.0914,0.08944 0.159094,0.209513 0.195616,0.347051 0.01049,0.0399 0.01407,0.06877 0.01639,0.134865 0.0016,0.04614 0.0036,0.08409 0.0043,0.08409 7.13e-4,0 0.01799,-0.0075 0.03813,-0.01639 0.05042,-0.0228 0.14306,-0.04988 0.210048,-0.06182 0.0759,-0.01337 0.247282,-0.01354 0.318901,-1.79e-4 0.127204,0.0237 0.256369,0.0775 0.319258,0.132728 0.0212,0.01853 0.02512,0.04471 0.0091,0.05933 -0.0057,0.005 -0.0481,0.01639 -0.102793,0.02744 -0.05131,0.01038 -0.125423,0.02672 -0.164617,0.03634 l -0.07126,0.01746 0.114015,1.77e-4 c 0.123997,0 0.177267,0.0065 0.293247,0.03474 0.08141,0.01995 0.151612,0.04614 0.230179,0.08605 0.157135,0.07982 0.27561,0.197042 0.333154,0.330126 0.02619,0.06021 0.02779,0.07411 0.01073,0.09015 l -0.01372,0.01282 -0.09478,-0.0033 c -0.0522,-0.0017 -0.105827,-0.0046 -0.11901,-0.0065 -0.01692,-0.0022 -0.0052,0.0036 0.04009,0.01906 0.51042,0.176198 0.872081,0.636201 1.089254,1.385887 0.07786,0.269196 0.143774,0.60431 0.170319,0.866913 0.02138,0.209692 0.02423,0.539461 0.0059,0.654016 -0.02459,0.153216 -0.07145,0.28719 -0.118831,0.339568 -0.05007,0.05541 -0.108318,0.05629 -0.154463,0.0023 l -0.02155,-0.02512 -0.0036,0.13255 c -0.002,0.07287 -0.0061,0.177088 -0.0091,0.231426 -0.02459,0.449492 -0.109748,0.723497 -0.277035,0.892034 -0.05576,0.05612 -0.06913,0.06521 -0.08837,0.0604 -0.01142,-0.0029 -0.01782,-0.01107 -0.03029,-0.03902 -0.01728,-0.03813 -0.06093,-0.167289 -0.07679,-0.227329 l -0.0098,-0.03705 -0.01158,0.06913 c -0.01924,0.116336 -0.07251,0.295919 -0.134332,0.453588 -0.06913,0.175842 -0.145732,0.25726 -0.247816,0.263317 l -0.03528,0.0022 -0.02174,-0.01959 c -0.04026,-0.03634 -0.05772,-0.114015 -0.05309,-0.235881 l 0.0027,-0.07144 -0.02779,0.05505 c -0.11705,0.231604 -0.334758,0.478174 -0.62854,0.712273 -0.253162,0.201674 -0.473542,0.285408 -0.658648,0.249955 -0.02263,-0.0045 -0.04579,-0.01194 -0.05114,-0.01693 -0.01371,-0.01247 -0.01229,-0.03581 0.0039,-0.0636 0.0076,-0.01301 0.0123,-0.0237 0.0105,-0.0237 -0.002,0 -0.01728,0.0092 -0.03385,0.02048 -0.231961,0.156601 -0.640119,0.321931 -0.948687,0.384642 -0.153395,0.031 -0.195796,0.03528 -0.347052,0.03438 -0.110463,-5.35e-4 -0.149652,-0.0027 -0.192232,-0.01072 l -0.05344,-0.01003 -0.0693,0.01729 c -0.0383,0.0095 -0.09406,0.02244 -0.124176,0.02886 l -0.05469,0.01158 v 0.08195 c 0,0.04525 0.0017,0.08195 0.0039,0.08195 0.0023,-1.77e-4 0.01853,-0.0037 0.03617,-0.0081 0.01746,-0.0043 0.05256,-0.0076 0.07767,-0.0078 0.07464,0 0.12186,0.01888 0.163014,0.06538 l 0.02084,0.0237 0.05879,0.0032 c 0.06788,0.0036 0.118119,0.01354 0.186174,0.03634 0.141101,0.04722 0.319615,0.163548 0.515767,0.336361 0.265811,0.234099 0.432565,0.392838 0.714767,0.680205 0.17103,0.174238 0.237306,0.245679 0.298413,0.321574 0.0376,0.04667 0.04098,0.04935 0.06004,0.04935 0.03332,0 0.138785,0.02014 0.180116,0.03421 0.115088,0.03955 0.184037,0.107072 0.203635,0.199714 0.01283,0.06146 0.0023,0.154462 -0.02691,0.235881 -0.0253,0.07109 -0.02566,0.06592 0.0069,0.100302 0.120257,0.127383 0.301265,0.381079 0.490112,0.687331 0.118118,0.191342 0.183323,0.292892 0.374486,0.582575 0.300374,0.455371 0.405665,0.62658 0.536789,0.871724 l 0.04418,0.08267 0.113669,3.56e-4 c 0.105296,3.57e-4 0.118296,0.0014 0.177623,0.0155 0.297523,0.07019 0.564046,0.278281 0.709957,0.554425 0.08018,0.15179 0.12186,0.310885 0.122216,0.465882 1.79e-4,0.08729 -0.0073,0.139319 -0.03438,0.24176 -0.03848,0.145732 -0.102793,0.244253 -0.190272,0.290931 -0.03153,0.01692 -0.03385,0.01959 -0.05736,0.06628 -0.05844,0.116871 -0.125779,0.174416 -0.193122,0.165151 -0.02084,-0.0029 -0.02244,-0.0022 -0.02565,0.01158 -0.002,0.0081 -0.01407,0.03634 -0.02708,0.06325 -0.03029,0.06272 -0.07073,0.104939 -0.126136,0.132015 -0.05523,0.02708 -0.102794,0.03438 -0.156779,0.02387 l -0.04151,-0.0081 -0.0029,0.01107 c -0.0076,0.02904 -0.04614,0.09478 -0.07305,0.124532 -0.09692,0.107245 -0.255121,0.09246 -0.381969,-0.03528 -0.06556,-0.0661 -0.111709,-0.145376 -0.136291,-0.23392 l -0.0091,-0.03242 -0.05665,-0.0025 c -0.04258,-0.0022 -0.06556,-0.0061 -0.09264,-0.01603 -0.135222,-0.05024 -0.23018,-0.171031 -0.267414,-0.340458 -0.01532,-0.06966 -0.01639,-0.285231 -0.002,-0.37912 0.0139,-0.08854 0.05024,-0.265988 0.06557,-0.319613 0.01371,-0.04793 0.04241,-0.113485 0.06076,-0.13932 0.0059,-0.0084 0.01073,-0.01799 0.01073,-0.02155 0,-0.0084 -0.156957,-0.274897 -0.276501,-0.469801 -0.215036,-0.349901 -0.408515,-0.637981 -0.592551,-0.881879 -0.171032,-0.226616 -0.410831,-0.532335 -0.507926,-0.647602 -0.04471,-0.05291 -0.176555,-0.200249 -0.179228,-0.200249 -5.34e-4,0 -0.02387,0.01073 -0.05131,0.02387 -0.0579,0.02725 -0.12952,0.05167 -0.189737,0.06449 -0.05167,0.01107 -0.182434,0.01622 -0.215392,0.0085 -0.01318,-0.003 -0.02566,-0.0039 -0.02761,-0.0017 -0.002,0.002 -0.0065,0.05648 -0.0098,0.121147 -0.0139,0.263316 0.01978,0.543557 0.09817,0.816851 0.03368,0.116872 0.06432,0.205416 0.126137,0.363085 0.129697,0.331373 0.16426,0.460359 0.169248,0.632637 0.0033,0.115981 -0.0032,0.159451 -0.03385,0.223765 -0.03777,0.07892 -0.125957,0.147515 -0.2243,0.174417 l -0.03296,0.0089 0.0078,0.02191 c 0.01514,0.04294 0.03385,0.151257 0.04009,0.231605 0.0068,0.08729 0.0017,0.190272 -0.01443,0.297702 -0.01728,0.115087 -0.06823,0.318367 -0.12863,0.513093 l -0.02993,0.09657 0.02655,0.03955 c 0.04918,0.07304 0.08659,0.141813 0.185105,0.339212 0.132728,0.266523 0.247995,0.477104 0.358275,0.655619 0.01906,0.03082 0.03474,0.062 0.03474,0.0693 0,0.02619 -0.110809,0.140388 -0.20292,0.209335 -0.07536,0.05648 -0.350793,0.237306 -0.469802,0.308568 -0.158917,0.09514 -0.345091,0.183324 -0.531265,0.251559 -0.03813,0.01407 -0.06984,0.02583 -0.07037,0.02601 -5.34e-4,1.79e-4 0.0069,0.02459 0.01675,0.0538 0.03117,0.09336 0.199714,0.401567 0.360769,0.659183 0.134687,0.21557 0.303045,0.45929 0.442365,0.640654 0.407268,0.529661 0.675751,0.833064 0.931941,1.052554 l 0.08499,0.07304 0.02334,-0.02601 c 0.03598,-0.04009 0.06681,-0.05007 0.153571,-0.04971 0.143774,7.11e-4 0.238376,0.04614 0.366827,0.176375 0.135399,0.137003 0.233208,0.293959 0.37609,0.604132 0.02833,0.06164 0.04988,0.115445 0.04988,0.12471 0,0.03652 -0.02976,0.158203 -0.09264,0.37805 -0.08605,0.300908 -0.106715,0.361303 -0.172814,0.504541 -0.15375,0.333868 -0.384997,0.597897 -0.650096,0.742561 -0.20203,0.110278 -0.462497,0.179939 -0.790128,0.211473 -0.101905,0.0096 -0.40994,0.0081 -0.523248,-0.003 -0.04988,-0.0048 -0.162837,-0.01119 -0.250846,-0.01426 -0.308212,-0.01073 -0.455014,-0.03189 -0.59273,-0.08569 -0.131479,-0.05131 -0.225369,-0.130412 -0.275253,-0.231783 -0.03278,-0.06698 -0.03973,-0.09994 -0.0392,-0.18956 3.56e-4,-0.06628 0.0025,-0.08516 0.01461,-0.130767 0.01603,-0.05968 0.05024,-0.134865 0.08444,-0.185461 0.07073,-0.10404 0.228398,-0.231961 0.389987,-0.31623 0.122929,-0.06432 0.221628,-0.101375 0.46606,-0.175664 0.08231,-0.02495 0.177266,-0.05648 0.210938,-0.07002 0.159451,-0.06414 0.255656,-0.143772 0.309816,-0.256367 0.01119,-0.02352 0.03884,-0.09674 0.06129,-0.162837 0.02244,-0.0661 0.0522,-0.143239 0.06628,-0.171743 l 0.02566,-0.05148 -0.0449,-0.03564 c -0.104939,-0.08337 -0.3075,-0.284161 -0.59558,-0.590057 -0.130945,-0.138962 -0.152147,-0.163727 -0.144842,-0.169071 0.0072,-0.0053 0.0025,-0.01247 -0.03403,-0.05078 -0.06645,-0.06983 -0.352574,-0.381613 -0.450204,-0.490289 -0.40709,-0.454123 -0.654729,-0.80634 -0.830926,-1.182431 -0.04026,-0.08605 -0.09461,-0.219668 -0.11616,-0.285586 -0.0082,-0.02494 -0.01639,-0.04703 -0.01818,-0.04899 -0.0017,-0.002 -0.03813,-0.0075 -0.08071,-0.01229 -0.07928,-0.0088 -0.294139,-0.04098 -0.432567,-0.06466 -0.398716,-0.06841 -0.729911,-0.164262 -1.048813,-0.303403 l -0.07856,-0.03438 -0.05595,0.08552 c -0.166578,0.254231 -0.346694,0.568323 -0.495278,0.864064 -0.165152,0.328344 -0.267949,0.575449 -0.385711,0.926241 -0.05879,0.175306 -0.118475,0.373417 -0.118297,0.39248 0,0.0073 -0.0155,0.06859 -0.03474,0.136112 -0.07501,0.264921 -0.136113,0.509174 -0.281133,1.123817 l -0.09121,0.386958 0.01461,0.01073 c 0.0367,0.02691 0.05648,0.04917 0.07215,0.08124 l 0.0171,0.03474 -3.57e-4,0.06753 c -3.56e-4,0.07839 -0.01084,0.142704 -0.05006,0.307678 -0.05665,0.238553 -0.113843,0.424192 -0.158561,0.513806 -0.0171,0.03456 -0.03385,0.07019 -0.03706,0.07946 -0.005,0.01479 -0.0095,0.01746 -0.04222,0.02565 -0.06645,0.01675 -0.148584,0.02191 -0.229289,0.01461 -0.0921,-0.0082 -0.158026,-0.02084 -0.300195,-0.05719 -0.497059,-0.127204 -0.774094,-0.227863 -1.337072,-0.484944 -0.456261,-0.208622 -0.659182,-0.313201 -0.94085,-0.485301 -0.195616,-0.119721 -0.358452,-0.232495 -0.447709,-0.31035 l -0.03937,-0.03421 -0.0032,0.04205 c -0.0082,0.1069 -0.05203,0.198823 -0.138428,0.291288 -0.0449,0.04792 -0.09817,0.0914 -0.21361,0.174059 -0.183859,0.131658 -0.287724,0.216818 -0.549438,0.450739 -0.432032,0.386423 -0.656331,0.541776 -0.945659,0.655619 -0.385889,0.151612 -0.799927,0.236415 -1.277033,0.261357 -0.02049,0.0013 -0.06378,0 -0.09602,-0.0027 z"
             style="fill:#f37b4a;fill-opacity:1;fill-rule:nonzero;stroke:none;stroke-width:0.178157"
             id="path270" />
        </g>
        <text
           xml:space="preserve"
           style="font-style:normal;font-variant:normal;font-weight:normal;font-stretch:normal;font-size:30.2849px;font-family:Cantarell;-inkscape-font-specification:'Cantarell, Normal';font-variant-ligatures:normal;font-variant-caps:normal;font-variant-numeric:normal;font-variant-east-asian:normal;text-align:center;text-anchor:middle;fill:#f37b4a;stroke:none;stroke-width:2.52377"
           x="154.10127"
           y="43.682926"
           id="text4991"
           inkscape:export-filename="/home/sergio/sembrarycrecersite/static/images/logo.png"
           inkscape:export-xdpi="96"
           inkscape:export-ydpi="96"><tspan
             sodipodi:role="line"
             id="tspan4989"
             style="font-style:normal;font-variant:normal;font-weight:bold;font-stretch:normal;font-size:30.2849px;font-family:Cantarell;-inkscape-font-specification:'Cantarell Bold';font-variant-ligatures:normal;font-variant-caps:normal;font-variant-numeric:normal;font-variant-east-asian:normal;text-align:center;text-anchor:middle;fill:#f37b4a;stroke:none;stroke-width:2.52377"
             x="154.10127"
             y="43.682926">Sembrar y Crecer <tspan
   style="font-style:normal;font-variant:normal;font-weight:300;font-stretch:normal;font-family:Cantarell;-inkscape-font-specification:'Cantarell Light';stroke-width:2.52377"
   id="tspan5681">Colombia</tspan></tspan><tspan
             sodipodi:role="line"
             style="font-style:normal;font-variant:normal;font-weight:300;font-stretch:normal;font-size:30.2849px;font-family:Cantarell;-inkscape-font-specification:'Cantarell Light';font-variant-ligatures:normal;font-variant-caps:normal;font-variant-numeric:normal;font-variant-east-asian:normal;text-align:center;text-anchor:middle;fill:#f37b4a;stroke:none;stroke-width:2.52377"
             x="154.10127"
             y="81.539055"
             id="tspan6377" /></text>
      </g>
    </g>
  </g>
</svg>
